<?xml version="1.0" standalone="no"?>
<!DOCTYPE svg PUBLIC "-//W3C//DTD SVG 1.1//EN" "http://www.w3.org/Graphics/SVG/1.1/DTD/svg11.dtd" >
<svg xmlns="http://www.w3.org/2000/svg" xmlns:xlink="http://www.w3.org/1999/xlink" version="1.1">
<metadata>
Created by FontForge 20190801 at Sun Apr 10 01:26:10 2022
 By www-data
Copyright 2018 Airbnb. All rights reserved.
</metadata>
<defs>
<font id="AirbnbCereal_W_Md" horiz-adv-x="0" >
  <font-face 
    font-family="AirbnbCereal_W_Md"
    font-weight="500"
    font-stretch="normal"
    units-per-em="1000"
    panose-1="2 11 6 2 2 2 3 2 2 4"
    ascent="800"
    descent="-200"
    x-height="523"
    cap-height="710"
    bbox="-217 -268 1069 963"
    underline-thickness="63"
    underline-position="-192"
    unicode-range="U+000D-FFFD"
  />
<missing-glyph horiz-adv-x="500" 
d="M450 0h-400v750h400v-750zM100 50h300v650h-300v-650z" />
    <glyph glyph-name="f_i.liga" unicode="fi" horiz-adv-x="624" 
d="M109 430h-92v93h92v37q0 82 47 138t129 56q27 0 51 -6q28 -9 41 -17l-26 -88q-32 13 -54 13q-73 0 -73 -102v-31h338v-523h-115v430h-223v-430h-115v430zM444 634q-10 16 -10 35t10 35q18 35 60 35q20 0 36 -9q15 -11 25 -26q9 -16 9 -35t-9 -35q-22 -35 -61 -35
q-21 0 -35 10q-16 9 -25 25z" />
    <glyph glyph-name="f_f.liga" unicode="ff" horiz-adv-x="735" 
d="M17 523h92v37q0 84 50.5 139t135.5 55q54 0 102 -26l-26 -88q-29 16 -62 16q-85 0 -85 -102v-31h223v37q0 84 50.5 139t135.5 55q54 0 102 -26l-26 -88q-29 16 -62 16q-85 0 -85 -102v-31h150v-93h-150v-430h-115v430h-223v-430h-115v430h-92v93z" />
    <glyph glyph-name="f_f_i.liga" unicode="ffi" horiz-adv-x="962" 
d="M109 430h-92v93h92v37q0 84 50.5 139t135.5 55q54 0 102 -26l-26 -88q-29 16 -62 16q-85 0 -85 -102v-31h223v37q0 82 47 138t129 56q27 0 51 -6q28 -9 41 -17l-26 -88q-32 13 -54 13q-73 0 -73 -102v-31h338v-523h-115v430h-223v-430h-115v430h-223v-430h-115v430z
M772 669q0 19 10 35q18 35 60 35q20 0 36 -9q15 -11 25 -26q9 -16 9 -35t-9 -35q-22 -35 -61 -35q-21 0 -35 10q-16 9 -25 25q-10 16 -10 35z" />
    <glyph glyph-name=".notdef" horiz-adv-x="500" 
d="M450 0h-400v750h400v-750zM100 50h300v650h-300v-650z" />
    <glyph glyph-name="uni0000" 
 />
    <glyph glyph-name="uni0000" 
 />
    <glyph glyph-name="uni000D" unicode="&#xd;" horiz-adv-x="213" 
 />
    <glyph glyph-name="space" unicode=" " horiz-adv-x="213" 
 />
    <glyph glyph-name="exclam" unicode="!" horiz-adv-x="250" 
d="M63 710h124l-6 -502h-112zM51 70q0 30 21.5 52t52.5 22t52.5 -21.5t21.5 -52.5t-21.5 -52.5t-52.5 -21.5q-30 0 -52 21.5t-22 52.5z" />
    <glyph glyph-name="quotedbl" unicode="&#x22;" horiz-adv-x="405" 
d="M56 710h104l-5 -270h-94zM245 710h104l-5 -270h-94z" />
    <glyph glyph-name="numbersign" unicode="#" horiz-adv-x="661" 
d="M149 182h-97l7 85h97l12 157h-95l7 86h95l15 180h96l-15 -180h145l15 180h96l-15 -180h97l-7 -86h-97l-12 -157h95l-7 -85h-95l-15 -182h-96l15 182h-145l-15 -182h-96zM252 267h145l12 157h-145z" />
    <glyph glyph-name="dollar" unicode="$" horiz-adv-x="594" 
d="M267 -8q-80 11 -136.5 57t-79.5 122l107 24q15 -43 43 -68q27 -27 66 -36v213q-86 15 -143 64t-57 130q0 83 57.5 137.5t142.5 63.5v121h67v-122q75 -9 128.5 -55.5t71.5 -119.5l-105 -24q-13 39 -37 66q-25 25 -58 32v-194l17 -3q87 -15 140 -64.5t53 -133.5
q0 -89 -59 -145.5t-151 -65.5v-131h-67v132zM334 291v-202q43 7 70.5 33.5t27.5 68.5q0 76 -98 100zM179 508q0 -68 88 -91v182q-39 -7 -63.5 -30t-24.5 -61z" />
    <glyph glyph-name="percent" unicode="%" horiz-adv-x="743" 
d="M394 146q0 68 44.5 112.5t113.5 44.5q67 0 111.5 -44t44.5 -112q0 -67 -45 -111.5t-113 -44.5q-66 0 -111 44t-45 111zM191 387q-67 0 -111.5 43.5t-44.5 111.5t44.5 112.5t113.5 44.5q67 0 111.5 -44t44.5 -112q0 -67 -45 -111.5t-113 -44.5zM204 0h-96l431 690h96z
M192 621q-31 0 -49.5 -23t-18.5 -55t18.5 -55t49.5 -23t49.5 23t18.5 55t-18.5 55t-49.5 23zM551 225q-31 0 -49.5 -23t-18.5 -55q0 -31 18.5 -54.5t49.5 -23.5t49.5 23t18.5 55t-18.5 55t-49.5 23z" />
    <glyph glyph-name="ampersand" unicode="&#x26;" horiz-adv-x="697" 
d="M279 -20q-98 0 -170.5 53.5t-72.5 148.5q0 64 36 115.5t95 81.5q-78 82 -78 163t54.5 132t137.5 51q77 0 132 -46t55 -123q0 -112 -139 -190l157 -158q39 71 49 180l103 -9q-14 -144 -79 -243l135 -136h-154l-53 54q-90 -74 -208 -74zM230 314q-33 -18 -54 -50.5
t-21 -69.5q0 -33 17 -59.5t47 -39.5q30 -15 71 -15q70 0 127 44zM198 546q0 -49 67 -116q96 48 96 121q0 35 -22 56t-57 21q-37 0 -60.5 -22.5t-23.5 -59.5z" />
    <glyph glyph-name="quotesingle" unicode="'" horiz-adv-x="216" 
d="M61 440l-5 270h104l-5 -270h-94z" />
    <glyph glyph-name="parenleft" unicode="(" horiz-adv-x="342" 
d="M213 -141q-167 204 -167 465t167 465h113q-174 -214 -174 -465t174 -465h-113z" />
    <glyph glyph-name="parenright" unicode=")" horiz-adv-x="342" 
d="M129 -141h-113q174 214 174 465t-174 465h113q167 -204 167 -465t-167 -465z" />
    <glyph glyph-name="asterisk" unicode="*" horiz-adv-x="413" 
d="M129 332l-75 53l93 113l-137 35l27 87l132 -53l-9 143h93l-9 -143l132 53l27 -87l-137 -35l93 -113l-75 -53l-78 123z" />
    <glyph glyph-name="plus" unicode="+" horiz-adv-x="594" 
d="M83 324h164v166h100v-166h164v-97h-164v-172h-100v172h-164v97z" />
    <glyph glyph-name="comma" unicode="," horiz-adv-x="254" 
d="M50 82q0 28 22 47t51 19q28 0 53 -17q50 -40 50 -115q0 -69 -41 -118t-109 -71l-24 67q40 14 67 42t27 67q0 13 -3 24q-13 -10 -30 -10t-31 9q-15 8 -23 23q-9 15 -9 33z" />
    <glyph glyph-name="hyphen" unicode="-" horiz-adv-x="372" 
d="M46 224v102h280v-102h-280z" />
    <glyph glyph-name="period" unicode="." horiz-adv-x="254" 
d="M51 72q0 32 22.5 54t53.5 22q32 0 54 -22t22 -54t-22 -54t-54 -22q-31 0 -53.5 22.5t-22.5 53.5z" />
    <glyph glyph-name="slash" unicode="/" horiz-adv-x="454" 
d="M10 -111l328 870h106l-328 -870h-106z" />
    <glyph glyph-name="zero" unicode="0" horiz-adv-x="612" 
d="M45 342q0 52 8 101.5t28 98t49.5 84t75.5 57.5t104 22q70 0 121.5 -31.5t80 -85t42 -113.5t13.5 -127q0 -53 -8 -102t-27 -97.5t-48 -84t-75.5 -57.5t-104.5 -22q-70 0 -122 31.5t-81 84.5t-42.5 113.5t-13.5 127.5zM164 345q0 -40 5.5 -78.5t19.5 -80.5t44 -67.5
t73 -25.5t73.5 25.5t44 67.5t19 80t5.5 79q0 42 -5 79.5t-19 79.5t-44 67.5t-74 25.5q-43 0 -73 -25.5t-44 -67.5t-19.5 -80t-5.5 -79z" />
    <glyph glyph-name="one" unicode="1" horiz-adv-x="431" 
d="M210 0v563l-150 -84l-41 97l209 114h98v-690h-116z" />
    <glyph glyph-name="two" unicode="2" horiz-adv-x="567" 
d="M43 515q20 86 84 138t153 52q96 0 160.5 -60.5t64.5 -157.5q0 -45 -16 -84q-21 -51 -73 -112t-93 -98t-102 -88h296v-105h-470v88q201 165 287 270q53 69 53 126q0 70 -52 102q-26 14 -58 14q-94 0 -124 -107z" />
    <glyph glyph-name="three" unicode="3" horiz-adv-x="565" 
d="M277 -15q-90 0 -158 48t-90 134l108 21q34 -100 138 -100q53 0 90.5 29t37.5 81q0 53 -38 80t-94 27h-74v102h69q51 0 86.5 26t35.5 75q0 44 -32 69t-78 25t-80.5 -26.5t-47.5 -70.5l-108 21q18 83 85.5 131t155.5 48q91 0 156.5 -49.5t65.5 -138.5q0 -53 -27 -93
t-75 -62q56 -20 87 -64t31 -103q0 -95 -73 -152.5t-171 -57.5z" />
    <glyph glyph-name="four" unicode="4" horiz-adv-x="592" 
d="M34 151v93l309 446h127v-440h82v-99h-82v-151h-114v151h-322zM149 250h207v297z" />
    <glyph glyph-name="five" unicode="5" horiz-adv-x="556" 
d="M278 -15q-86 0 -154.5 48t-88.5 131l110 19q17 -45 51.5 -70t81.5 -25q55 0 92 35.5t37 91.5q0 55 -36 89.5t-92 34.5q-67 0 -112 -45l-94 10v386h401v-107h-291v-179q47 38 118 38q96 0 160 -64t64 -161q0 -100 -72 -166t-175 -66z" />
    <glyph glyph-name="six" unicode="6" horiz-adv-x="593" 
d="M46 322q0 73 20 140t58 122t100 88t139 33q89 0 159 -46l-35 -96q-54 35 -122 35q-50 0 -88 -20t-61 -55.5t-36 -77t-18 -90.5q55 88 170 88q96 0 163 -63t67 -160q0 -101 -72 -168t-175 -67q-67 0 -119.5 28.5t-84.5 77t-48.5 107.5t-16.5 124zM315 345q-55 0 -92 -35.5
t-37 -90.5t36.5 -93.5t91.5 -38.5t92.5 38t37.5 93t-36.5 91t-92.5 36z" />
    <glyph glyph-name="seven" unicode="7" horiz-adv-x="552" 
d="M127 0l253 583h-345v107h474v-90l-252 -600h-130z" />
    <glyph glyph-name="eight" unicode="8" horiz-adv-x="590" 
d="M294 -15q-102 0 -177.5 53.5t-75.5 151.5q0 59 31.5 104.5t87.5 66.5q-45 22 -71 61.5t-26 89.5q0 89 70 141t163 52q92 0 161 -50.5t69 -140.5q0 -103 -95 -152q56 -19 87 -63.5t31 -104.5q0 -99 -75 -154t-180 -55zM295 308q-55 0 -95.5 -28.5t-40.5 -82.5
q0 -53 40 -82t96 -29t96 28.5t40 82.5t-40 82.5t-96 28.5zM295 604q-47 0 -82 -26.5t-35 -72.5t34.5 -72.5t82.5 -26.5t82.5 26.5t34.5 72.5t-34.5 72.5t-82.5 26.5z" />
    <glyph glyph-name="nine" unicode="9" horiz-adv-x="590" 
d="M31 470q0 101 71.5 168t174.5 67q69 0 122 -29.5t84 -79t46 -109.5t15 -127q0 -90 -22 -159q-33 -101 -109 -158.5t-182 -57.5q-96 0 -166 46l35 96q25 -16 58 -25q30 -10 70 -10q184 0 201 243q-55 -88 -170 -88q-96 0 -162 63.5t-66 159.5zM277 603q-54 0 -91 -38
t-37 -93q0 -54 36.5 -90.5t90.5 -36.5q55 0 91.5 35.5t36.5 90.5t-36 93.5t-91 38.5z" />
    <glyph glyph-name="colon" unicode=":" horiz-adv-x="254" 
d="M51 451q0 31 22.5 53.5t53.5 22.5q32 0 54 -22t22 -54t-22 -54t-54 -22q-31 0 -53.5 22.5t-22.5 53.5zM127 -4q-31 0 -53.5 22.5t-22.5 53.5q0 32 22.5 54t53.5 22q32 0 54 -22t22 -54t-22 -54t-54 -22z" />
    <glyph glyph-name="semicolon" unicode=";" horiz-adv-x="254" 
d="M59 49q-9 15 -9 33q0 28 22 47t51 19q28 0 53 -17q50 -40 50 -115q0 -69 -41 -118t-109 -71l-24 67q40 14 67 42t27 67q0 13 -3 24q-13 -10 -30 -10t-31 9q-15 8 -23 23zM51 451q0 31 22.5 53.5t53.5 22.5q32 0 54 -22t22 -54t-22 -54t-54 -22q-31 0 -53.5 22.5
t-22.5 53.5z" />
    <glyph glyph-name="less" unicode="&#x3c;" horiz-adv-x="594" 
d="M95 229v92l378 163v-101l-263 -106l263 -106v-105z" />
    <glyph glyph-name="equal" unicode="=" horiz-adv-x="594" 
d="M86 339v101h423v-101h-423zM509 111h-423v101h423v-101z" />
    <glyph glyph-name="greater" unicode="&#x3e;" horiz-adv-x="594" 
d="M385 273l-263 106v105l378 -163v-92l-378 -163v101z" />
    <glyph glyph-name="question" unicode="?" horiz-adv-x="525" 
d="M128 526l-108 26q19 80 85.5 126.5t150.5 46.5q95 0 164 -56t69 -150q0 -80 -51 -135.5t-133 -81.5v-94h-112v155q175 42 175 151q0 48 -31.5 77t-81.5 29q-46 0 -79.5 -25t-47.5 -69zM249 -4q-30 0 -52 21.5t-22 52.5q0 30 21.5 52t52.5 22t52.5 -21.5t21.5 -52.5
t-21.5 -52.5t-52.5 -21.5z" />
    <glyph glyph-name="at" unicode="@" horiz-adv-x="1011" 
d="M46 254q0 197 135.5 327.5t336.5 130.5q92 0 173.5 -29.5t142 -83t96 -133.5t35.5 -176q0 -47 -10.5 -91.5t-32.5 -83.5t-60.5 -62.5t-89.5 -23.5q-49 0 -85.5 23t-51.5 68q-48 -92 -152 -92q-92 0 -150 68.5t-58 162.5q0 93 57.5 163t148.5 70q96 0 143 -78l3 66h99
v-294q0 -31 15 -49q13 -19 38 -19t43 19t26.5 48.5t12 55t3.5 48.5q0 148 -96.5 239.5t-248.5 91.5q-157 0 -263 -103.5t-106 -262.5q0 -150 102 -254t254 -104q118 0 218 55l40 -82q-113 -65 -259 -65q-126 0 -230.5 57.5t-166.5 161t-62 231.5zM384 261q0 -55 32 -94.5
t86 -39.5q53 0 85.5 39.5t32.5 94.5q0 76 -57 117q-28 17 -61 17q-54 0 -86 -39t-32 -95z" />
    <glyph glyph-name="A" unicode="A" horiz-adv-x="735" 
d="M19 0l283 710h130l284 -710h-126l-67 176h-316l-67 -176h-121zM365 587l-118 -307h236z" />
    <glyph glyph-name="B" unicode="B" horiz-adv-x="613" 
d="M70 710h246q95 0 161 -45.5t66 -137.5q0 -105 -91 -151q58 -20 89.5 -66.5t31.5 -108.5q0 -99 -73.5 -150t-178.5 -51h-251v710zM188 104h128q57 0 95.5 26t38.5 81q0 56 -37.5 82t-96.5 26h-128v-215zM188 418h117q116 0 116 94q0 48 -32.5 71t-83.5 23h-117v-188z" />
    <glyph glyph-name="C" unicode="C" horiz-adv-x="733" 
d="M46 350q0 100 41.5 186t122.5 140t183 54t182 -52t115 -147l-117 -33q-26 57 -72.5 88.5t-108.5 31.5q-101 0 -160.5 -80.5t-59.5 -186.5q0 -105 59.5 -182t162.5 -77q127 0 186 120l117 -33q-34 -94 -117 -146.5t-187 -52.5q-153 0 -250 106.5t-97 263.5z" />
    <glyph glyph-name="D" unicode="D" horiz-adv-x="751" 
d="M70 710h259q164 0 270 -94.5t106 -259.5q0 -162 -105 -259t-271 -97h-259v710zM192 109h131q115 0 185.5 65t70.5 181q0 115 -69 180.5t-187 65.5h-131v-492z" />
    <glyph glyph-name="E" unicode="E" horiz-adv-x="568" 
d="M70 710h430v-105h-310v-186h280v-105h-280v-209h320v-105h-440v710z" />
    <glyph glyph-name="F" unicode="F" horiz-adv-x="537" 
d="M70 710h421v-107h-301v-204h270v-107h-270v-292h-120v710z" />
    <glyph glyph-name="G" unicode="G" horiz-adv-x="786" 
d="M46 353q0 157 101 267t259 110q98 0 179.5 -47.5t120.5 -134.5l-116 -39q-58 109 -184 109q-104 0 -169 -78t-65 -185q0 -108 64.5 -185.5t172.5 -77.5q87 0 144 50t64 137h-194v102h319v-67q0 -147 -94 -240.5t-244 -93.5q-155 0 -256.5 107t-101.5 266z" />
    <glyph glyph-name="H" unicode="H" horiz-adv-x="731" 
d="M70 710h122v-288h347v288h122v-710h-122v313h-347v-313h-122v710z" />
    <glyph glyph-name="I" unicode="I" horiz-adv-x="262" 
d="M70 0v710h122v-710h-122z" />
    <glyph glyph-name="J" unicode="J" horiz-adv-x="542" 
d="M16 166l118 25q34 -96 116 -96q53 0 80.5 38.5t27.5 94.5v482h122v-479q0 -107 -61.5 -176.5t-169.5 -69.5q-86 0 -148 48.5t-85 132.5z" />
    <glyph glyph-name="K" unicode="K" horiz-adv-x="676" 
d="M70 710h122v-317l291 317h146l-310 -333l346 -377h-162l-311 347v-347h-122v710z" />
    <glyph glyph-name="L" unicode="L" horiz-adv-x="536" 
d="M70 0v710h122v-601h301v-109h-423z" />
    <glyph glyph-name="M" unicode="M" horiz-adv-x="844" 
d="M70 710h118l236 -435l237 435h113v-710h-121v490l-186 -342h-90l-186 342v-490h-121v710z" />
    <glyph glyph-name="N" unicode="N" horiz-adv-x="721" 
d="M70 710h108l354 -508v508h119v-710h-108l-354 510v-510h-119v710z" />
    <glyph glyph-name="O" unicode="O" horiz-adv-x="810" 
d="M46 354q0 158 100.5 267t259.5 109q157 0 257.5 -106.5t100.5 -267.5q0 -158 -100 -267t-259 -109q-156 0 -257.5 107t-101.5 267zM172 355q0 -108 63.5 -185.5t169.5 -77.5t169.5 76.5t63.5 186.5q0 109 -62.5 186t-170.5 77q-106 0 -169.5 -76.5t-63.5 -186.5z" />
    <glyph glyph-name="P" unicode="P" horiz-adv-x="587" 
d="M70 0v710h215q120 0 195.5 -58t75.5 -176q0 -112 -79 -172t-197 -60q-38 0 -90 7v-251h-120zM190 604v-247q49 -7 85 -7q70 0 113.5 30t43.5 97q0 65 -41 96t-108 31h-93z" />
    <glyph glyph-name="Q" unicode="Q" horiz-adv-x="810" 
d="M405 -20q-156 0 -257.5 107t-101.5 267q0 158 100.5 267t259.5 109q157 0 257.5 -106.5t100.5 -267.5q0 -163 -105 -271l85 -105l-82 -66l-87 108q-81 -42 -170 -42zM172 355q0 -108 63.5 -185.5t169.5 -77.5q52 0 97 20l-121 151l81 65l121 -151q55 75 55 178
q0 109 -62.5 186t-170.5 77q-106 0 -169.5 -76.5t-63.5 -186.5z" />
    <glyph glyph-name="R" unicode="R" horiz-adv-x="618" 
d="M70 0v710h214q117 0 195.5 -55t78.5 -168q0 -65 -34 -116.5t-94 -80.5l165 -290h-135l-137 258q-7 -1 -24 -1q-9 -1 -28 -1q-38 0 -81 7v-263h-120zM190 604v-235q33 -7 88 -7q67 0 111.5 29t44.5 92q0 62 -43 91.5t-109 29.5h-92z" />
    <glyph glyph-name="S" unicode="S" horiz-adv-x="564" 
d="M29 160l115 28q34 -96 136 -96q50 0 87.5 29t37.5 78q0 45 -31 67.5t-83 34.5l-37 8q-92 19 -149.5 69t-57.5 136q0 95 69 153t167 58q84 0 149.5 -46t85.5 -126l-114 -28q-34 93 -124 93q-44 0 -77 -26t-33 -69q0 -23 10.5 -41t29.5 -29t36.5 -17.5t41.5 -11.5l37 -8
q204 -46 204 -207q0 -101 -72.5 -162.5t-177.5 -61.5q-87 0 -157.5 46.5t-92.5 128.5z" />
    <glyph glyph-name="T" unicode="T" horiz-adv-x="624" 
d="M44 601v109h536v-109h-207v-601h-122v601h-207z" />
    <glyph glyph-name="U" unicode="U" horiz-adv-x="716" 
d="M62 710h122v-423q0 -84 45.5 -139.5t128.5 -55.5t128.5 54.5t45.5 140.5v423h122v-428q0 -135 -80.5 -218.5t-217.5 -83.5q-134 0 -214 82t-80 220v428z" />
    <glyph glyph-name="V" unicode="V" horiz-adv-x="712" 
d="M19 710h133l207 -572l206 572h128l-272 -710h-130z" />
    <glyph glyph-name="W" unicode="W" horiz-adv-x="1029" 
d="M31 710h130l146 -548l150 548h118l151 -548l145 548h127l-210 -710h-124l-149 540l-149 -540h-125z" />
    <glyph glyph-name="X" unicode="X" horiz-adv-x="669" 
d="M11 0l255 375l-227 335h139l158 -249l157 249h135l-225 -335l255 -375h-145l-181 281l-181 -281h-140z" />
    <glyph glyph-name="Y" unicode="Y" horiz-adv-x="648" 
d="M14 710h138l174 -318l173 318h135l-249 -430v-280h-122v280z" />
    <glyph glyph-name="Z" unicode="Z" horiz-adv-x="630" 
d="M41 0v88l377 518h-362v104h513v-88l-377 -518h399v-104h-550z" />
    <glyph glyph-name="bracketleft" unicode="[" horiz-adv-x="358" 
d="M80 789h238v-89h-136v-752h136v-89h-238v930z" />
    <glyph glyph-name="backslash" unicode="\" horiz-adv-x="454" 
d="M338 -111l-328 870h106l328 -870h-106z" />
    <glyph glyph-name="bracketright" unicode="]" horiz-adv-x="358" 
d="M176 700h-136v89h238v-930h-238v89h136v752z" />
    <glyph glyph-name="asciicircum" unicode="^" horiz-adv-x="594" 
d="M76 344l171 346h101l171 -346h-110l-113 234l-114 -234h-106z" />
    <glyph glyph-name="underscore" unicode="_" horiz-adv-x="573" 
d="M30 -150v87h513v-87h-513z" />
    <glyph glyph-name="grave" unicode="`" horiz-adv-x="587" 
d="M306 601l-136 143h130l116 -143h-110z" />
    <glyph glyph-name="a" unicode="a" horiz-adv-x="554" 
d="M37 149q0 82 63 124.5t150 42.5q68 0 128 -25v33q0 52 -28.5 85t-79.5 33q-36 0 -65.5 -19t-42.5 -53l-106 24q19 67 80.5 105.5t135.5 38.5q97 0 158.5 -60.5t61.5 -158.5v-319h-105l-4 69q-24 -42 -67 -63t-94 -21q-76 0 -130.5 44.5t-54.5 119.5zM153 154
q0 -37 28.5 -57t67.5 -20q54 0 91.5 34t37.5 88v12q-24 10 -53 18q-29 6 -57 6q-45 0 -80 -19.5t-35 -61.5z" />
    <glyph glyph-name="b" unicode="b" horiz-adv-x="632" 
d="M62 744h115v-297q60 91 172 91q108 0 176 -81t68 -193q0 -113 -69 -196t-181 -83q-114 0 -171 92l-5 -77h-105v744zM325 434q-68 0 -109 -50.5t-41 -121.5q0 -69 41 -121t109 -52t109 51t41 122t-40.5 121.5t-109.5 50.5z" />
    <glyph glyph-name="c" unicode="c" horiz-adv-x="561" 
d="M39 258q0 115 73 197.5t188 82.5q79 0 140.5 -42t82.5 -116l-109 -26q-35 80 -116 80q-65 0 -103 -53.5t-38 -121.5q0 -69 37.5 -119.5t103.5 -50.5q41 0 73.5 21t48.5 58l108 -25q-20 -72 -86 -115t-144 -43q-112 0 -185.5 79t-73.5 194z" />
    <glyph glyph-name="d" unicode="d" horiz-adv-x="632" 
d="M283 -15q-107 0 -175.5 81.5t-68.5 192.5q0 112 69.5 195.5t180.5 83.5q106 0 166 -84v290h115v-744h-105l-5 84q-28 -47 -74.5 -73t-102.5 -26zM157 261q0 -69 41 -120.5t109 -51.5t109 51t41 121q0 71 -40 122t-110 51q-68 0 -109 -51t-41 -122z" />
    <glyph glyph-name="e" unicode="e" horiz-adv-x="581" 
d="M39 262q0 113 72 194.5t185 81.5q114 0 181.5 -76.5t67.5 -193.5v-34h-387q6 -64 45 -106.5t102 -42.5q82 0 128 73l101 -39q-29 -65 -91.5 -99.5t-137.5 -34.5q-117 0 -191.5 79t-74.5 198zM296 445q-54 0 -89 -36.5t-46 -92.5h264q-9 56 -41.5 92.5t-87.5 36.5z" />
    <glyph glyph-name="f" unicode="f" horiz-adv-x="397" 
d="M17 430v93h92v37q0 84 50.5 139t135.5 55q54 0 102 -26l-26 -88q-29 16 -62 16q-85 0 -85 -102v-31h150v-93h-150v-430h-115v430h-92z" />
    <glyph glyph-name="g" unicode="g" horiz-adv-x="627" 
d="M39 272q0 109 69 187.5t178 78.5q113 0 170 -89l4 74h105v-468q0 -119 -72 -193.5t-193 -74.5q-161 0 -234 136l109 38q46 -73 129 -73q68 0 107 43.5t39 114.5v50q-61 -86 -170 -86q-105 0 -173 77t-68 185zM304 434q-64 0 -105.5 -47t-41.5 -113q0 -65 41 -112.5
t106 -47.5t106.5 46.5t41.5 113.5t-41 113.5t-107 46.5z" />
    <glyph glyph-name="h" unicode="h" horiz-adv-x="587" 
d="M62 0v744h115v-284q53 78 154 78q93 0 143.5 -64.5t50.5 -162.5v-311h-115v298q0 59 -26 97.5t-82 38.5q-55 0 -90 -37t-35 -93v-304h-115z" />
    <glyph glyph-name="i" unicode="i" horiz-adv-x="239" 
d="M177 0h-115v523h115v-523zM59 634q-10 16 -10 35t10 35q8 15 25 26q16 9 35 9t35 -9q16 -10 26 -26q9 -16 9 -35t-9 -35q-11 -17 -26 -25q-16 -10 -35 -10t-35 10q-16 9 -25 25z" />
    <glyph glyph-name="j" unicode="j" horiz-adv-x="244" 
d="M-31 -202q-26 9 -43 19l27 89q22 -13 48 -13q34 0 50 22.5t16 57.5v550h115v-557q0 -76 -44 -125t-120 -49q-26 0 -49 6zM54 669q0 19 10 35q18 35 60 35q20 0 36 -9q15 -11 25 -26q9 -16 9 -35t-9 -35q-22 -35 -61 -35q-21 0 -35 10q-16 9 -25 25q-10 16 -10 35z" />
    <glyph glyph-name="k" unicode="k" horiz-adv-x="561" 
d="M62 744h115v-437l214 216h140l-235 -232l259 -291h-151l-227 264v-264h-115v744z" />
    <glyph glyph-name="l" unicode="l" horiz-adv-x="239" 
d="M62 0v744h115v-744h-115z" />
    <glyph glyph-name="m" unicode="m" horiz-adv-x="915" 
d="M62 523h105l4 -70q24 41 65 63t89 22q54 0 96.5 -27t65.5 -76q23 48 71.5 75.5t103.5 27.5q94 0 142.5 -64t48.5 -162v-312h-115v299q0 58 -25 96.5t-80 38.5q-53 0 -85.5 -37t-32.5 -92v-305h-115v299q0 58 -25 96.5t-80 38.5q-53 0 -85.5 -37t-32.5 -92v-305h-115v523z
" />
    <glyph glyph-name="n" unicode="n" horiz-adv-x="587" 
d="M62 523h105l4 -72q23 42 66 64.5t94 22.5q93 0 143.5 -64.5t50.5 -162.5v-311h-115v298q0 59 -26 97.5t-82 38.5q-55 0 -90 -37t-35 -93v-304h-115v523z" />
    <glyph glyph-name="o" unicode="o" horiz-adv-x="614" 
d="M39 262q0 118 75.5 197t194.5 79q116 0 191 -78.5t75 -197.5q0 -118 -75.5 -197.5t-194.5 -79.5q-115 0 -190.5 79.5t-75.5 197.5zM307 434q-68 0 -109 -50.5t-41 -121.5q0 -69 41 -121t109 -52t109 51t41 122t-40.5 121.5t-109.5 50.5z" />
    <glyph glyph-name="p" unicode="p" horiz-adv-x="632" 
d="M62 523h105l5 -84q60 99 177 99q108 0 176 -81t68 -193q0 -113 -69 -196t-181 -83q-106 0 -166 84v-267h-115v721zM325 434q-68 0 -109 -50.5t-41 -121.5q0 -69 41 -121t109 -52t109 51t41 122t-40.5 121.5t-109.5 50.5z" />
    <glyph glyph-name="q" unicode="q" horiz-adv-x="632" 
d="M283 -15q-107 0 -175.5 81.5t-68.5 192.5q0 112 69.5 195.5t180.5 83.5q114 0 171 -92l5 77h105v-721h-115v274q-60 -91 -172 -91zM157 261q0 -69 41 -120.5t109 -51.5t109 51t41 121q0 71 -40 122t-110 51q-68 0 -109 -51t-41 -122z" />
    <glyph glyph-name="r" unicode="r" horiz-adv-x="388" 
d="M62 523h105l5 -86q42 93 139 93q32 0 54 -9l-13 -112q-18 7 -47 7q-64 0 -96 -42.5t-32 -108.5v-265h-115v523z" />
    <glyph glyph-name="s" unicode="s" horiz-adv-x="479" 
d="M29 125l104 27q28 -72 109 -72q35 0 62 17t27 49q0 53 -85 67l-33 6q-169 30 -169 154q0 77 57 121t138 44q71 0 125.5 -36t73.5 -102l-103 -25q-27 69 -97 69q-31 0 -56 -16t-25 -46q0 -46 90 -62l33 -6q71 -12 118.5 -51t47.5 -106q0 -80 -60.5 -126t-144.5 -46
q-73 0 -132 36.5t-80 103.5z" />
    <glyph glyph-name="t" unicode="t" horiz-adv-x="426" 
d="M17 523h92v177h115v-177h152v-93h-152v-257q0 -38 16.5 -62.5t52.5 -24.5q18 0 39 6q21 4 39 15l26 -87q-19 -14 -53 -26q-32 -9 -66 -9q-81 0 -125 47t-44 129v269h-92v93z" />
    <glyph glyph-name="u" unicode="u" horiz-adv-x="586" 
d="M62 231v292h115v-294q0 -60 29 -100t87 -40t87 40t29 100v294h115v-292q0 -109 -61.5 -177.5t-170.5 -68.5q-107 0 -168.5 68t-61.5 178z" />
    <glyph glyph-name="v" unicode="v" horiz-adv-x="545" 
d="M14 523h126l134 -403l135 403h122l-200 -523h-117z" />
    <glyph glyph-name="w" unicode="w" horiz-adv-x="824" 
d="M188 0l-174 523h120l111 -382l117 382h103l116 -382l113 382h116l-175 -523h-108l-115 380l-116 -380h-108z" />
    <glyph glyph-name="x" unicode="x" horiz-adv-x="554" 
d="M14 0l199 276l-177 247h130l112 -175l115 175h125l-177 -247l199 -276h-135l-129 200l-131 -200h-131z" />
    <glyph glyph-name="y" unicode="y" horiz-adv-x="545" 
d="M14 523h126l141 -391l128 391h122l-222 -586q-56 -145 -177 -145q-49 0 -88 21l25 91q7 -3 25 -9q14 -3 27 -3q61 0 90 72l16 41z" />
    <glyph glyph-name="z" unicode="z" horiz-adv-x="513" 
d="M41 0v76l272 354h-265v93h407v-76l-272 -354h289v-93h-431z" />
    <glyph glyph-name="braceleft" unicode="{" horiz-adv-x="367" 
d="M45 282h-15v84h15q35 0 53 20t18 54q0 24 -4 51q-11 66 -11 128q0 83 50.5 126.5t137.5 43.5h38v-89h-31q-90 0 -90 -94q0 -29 4 -54q11 -66 11 -108q0 -39 -17.5 -73t-50.5 -47q37 -14 59 -65q9 -25 9 -55q0 -43 -11 -107q-4 -25 -4 -55q0 -94 90 -94h31v-89h-38
q-85 0 -136.5 42.5t-51.5 127.5q0 52 11 129q4 25 4 50q0 34 -18 54t-53 20z" />
    <glyph glyph-name="bar" unicode="|" horiz-adv-x="262" 
d="M80 -111v870h102v-870h-102z" />
    <glyph glyph-name="braceright" unicode="}" horiz-adv-x="367" 
d="M78 -141h-38v89h31q42 0 67 23q23 25 23 71q0 43 -11 111q-4 25 -4 51q0 38 17.5 72.5t50.5 47.5q-41 17 -58 66q-10 23 -10 54q0 26 4 51q11 68 11 111q0 46 -23 71q-25 23 -67 23h-31v89h38q85 0 136.5 -42.5t51.5 -127.5q0 -36 -4 -65q-2 -15 -7 -63q-4 -27 -4 -51
q0 -34 18.5 -54t52.5 -20h15v-84h-15q-34 0 -52.5 -20t-18.5 -54q0 -25 4 -50q4 -44 7 -63q4 -31 4 -66q0 -83 -50.5 -126.5t-137.5 -43.5z" />
    <glyph glyph-name="asciitilde" unicode="~" horiz-adv-x="594" 
d="M66 190q9 72 43.5 123.5t99.5 51.5q40 0 81 -27q4 -3 14.5 -11t16.5 -12q32 -28 56 -28q39 0 53 71h98q-9 -73 -43 -124t-100 -51q-42 0 -81 28q-15 9 -30 23q-24 17 -28 19q-14 8 -29 8q-39 0 -53 -71h-98z" />
    <glyph glyph-name="uni00A0" unicode="&#xa0;" horiz-adv-x="213" 
 />
    <glyph glyph-name="exclamdown" unicode="&#xa1;" horiz-adv-x="250" 
d="M187 -187h-124l6 502h112zM51 453q0 31 21.5 52.5t52.5 21.5t52.5 -21.5t21.5 -52.5t-21.5 -52.5t-52.5 -21.5q-30 0 -52 21.5t-22 52.5z" />
    <glyph glyph-name="cent" unicode="&#xa2;" horiz-adv-x="594" 
d="M273 -7q-99 16 -159 89.5t-60 175.5q0 101 60 179t159 93v120h67v-118q71 -7 124.5 -46t73.5 -106l-109 -26q-26 60 -89 77v-339q31 6 56.5 26.5t38.5 49.5l108 -25q-20 -64 -76.5 -105t-126.5 -47v-129h-67v131zM172 259q0 -42 13 -74q11 -32 34.5 -56.5t53.5 -33.5v333
q-48 -17 -74.5 -65.5t-26.5 -103.5z" />
    <glyph glyph-name="sterling" unicode="&#xa3;" horiz-adv-x="594" 
d="M30 379h84l9 104q6 97 64 159.5t155 62.5q86 0 142 -47.5t74 -132.5l-110 -22q-20 97 -105 97q-49 0 -75 -33t-30 -85l-8 -103h183v-92h-191l-14 -182h349v-105h-526v105h61l15 182h-77v92z" />
    <glyph glyph-name="currency" unicode="&#xa4;" horiz-adv-x="594" 
d="M47 550l67 67l79 -79q48 29 104 29q55 0 104 -29l79 79l67 -67l-79 -79q31 -46 31 -107q0 -62 -31 -108l79 -79l-67 -67l-79 79q-47 -29 -105 -29q-55 0 -103 29l-79 -79l-67 67l79 79q-31 46 -31 107t31 108zM198 363q0 -45 27.5 -77.5t71.5 -32.5t71 32t27 78
t-26.5 77.5t-71.5 31.5q-44 0 -71.5 -31.5t-27.5 -77.5z" />
    <glyph glyph-name="yen" unicode="&#xa5;" horiz-adv-x="594" 
d="M21 690h129l149 -307l149 307h125l-182 -336h111v-75h-147v-80h147v-75h-147v-124h-116v124h-147v75h147v80h-147v75h111z" />
    <glyph glyph-name="section" unicode="&#xa7;" horiz-adv-x="506" 
d="M249 -95q-76 0 -134 34.5t-84 102.5l105 26q34 -69 115 -69q38 0 67 16t29 51q0 51 -92 68l-48 9q-72 14 -120 53t-48 106q0 45 23.5 81.5t65.5 56.5q-76 42 -76 121q0 76 61.5 120t141.5 44q74 0 128 -33.5t76 -101.5l-105 -26q-29 66 -103 66q-33 0 -59.5 -14.5
t-26.5 -45.5q0 -51 95 -67l50 -8q72 -12 118.5 -50t46.5 -106q0 -98 -93 -141q80 -42 80 -125q0 -80 -64 -124t-149 -44zM231 401q-36 0 -59.5 -21.5t-23.5 -56.5q0 -60 85 -78l23 -5q14 -3 26 -3q36 0 59.5 21.5t23.5 56.5q0 60 -85 78l-23 5q-14 3 -26 3z" />
    <glyph glyph-name="dieresis" unicode="&#xa8;" horiz-adv-x="587" 
d="M192 604q-26 0 -45.5 19.5t-19.5 45.5t19.5 45.5t45.5 19.5q35 0 57 -32q8 -16 8 -33q0 -27 -19 -46t-46 -19zM338 637q-9 13 -9 32q0 27 19 46t46 19q26 0 45.5 -19t19.5 -46q0 -26 -19.5 -45.5t-45.5 -19.5q-40 0 -56 33z" />
    <glyph glyph-name="copyright" unicode="&#xa9;" horiz-adv-x="854" 
d="M51 355q0 159 107.5 267t268.5 108q159 0 267.5 -107t108.5 -268q0 -159 -107.5 -267.5t-268.5 -108.5q-159 0 -267.5 107.5t-108.5 268.5zM129 355q0 -124 87 -213t211 -89t211 88.5t87 213.5q0 124 -86.5 212.5t-211.5 88.5q-124 0 -211 -88t-87 -213zM431 153
q-84 0 -138.5 58.5t-54.5 144.5q0 85 55 147t140 62q61 0 106.5 -33t61.5 -92l-87 -21q-25 60 -81 60q-45 0 -71.5 -37t-26.5 -84q0 -48 25.5 -83.5t72.5 -35.5q28 0 51.5 16.5t33.5 42.5l87 -21q-15 -56 -65 -90t-109 -34z" />
    <glyph glyph-name="ordfeminine" unicode="&#xaa;" horiz-adv-x="399" 
d="M93 327q-30 13 -47 40t-17 60q0 58 44.5 88t106.5 30q44 0 83 -17v22q0 31 -18 52t-49 21q-23 0 -42 -11q-18 -12 -25 -31l-87 17q14 47 59 74.5t97 27.5q71 0 115 -41.5t44 -113.5v-224h-87l-3 45q-32 -54 -108 -54q-37 0 -66 15zM124 431q0 -23 17.5 -35.5t41.5 -12.5
q33 0 56.5 23t23.5 56v6q-37 14 -67 14q-72 0 -72 -51z" />
    <glyph glyph-name="guillemotleft" unicode="&#xab;" horiz-adv-x="507" 
d="M367 95l-136 190l136 190h105l-132 -190l132 -190h-105zM20 285l136 190h105l-132 -190l132 -190h-105z" />
    <glyph glyph-name="logicalnot" unicode="&#xac;" horiz-adv-x="594" 
d="M80 271v97h414v-268h-100v171h-314z" />
    <glyph glyph-name="registered" unicode="&#xae;" horiz-adv-x="536" 
d="M40 495q0 96 65 160.5t163 64.5q97 0 162.5 -63.5t65.5 -161.5q0 -96 -65.5 -160.5t-162.5 -64.5q-96 0 -162 64t-66 161zM268 668q-72 0 -122.5 -50t-50.5 -123q0 -72 50 -122.5t123 -50.5q72 0 122.5 50t50.5 123t-49.5 123t-123.5 50zM184 615h83q43 0 70.5 -18.5
t27.5 -59.5q0 -42 -38 -66l50 -92h-63l-37 76q-5 -1 -13 -1q-5 0 -23 2v-77h-57v236zM265 566h-24v-62q14 -2 24 -2q17 0 29 8.5t12 24.5q0 14 -11 23q-11 8 -30 8z" />
    <glyph glyph-name="macron" unicode="&#xaf;" horiz-adv-x="587" 
d="M140 610v83h306v-83h-306z" />
    <glyph glyph-name="degree" unicode="&#xb0;" horiz-adv-x="372" 
d="M185 432q-67 0 -114 46t-47 114q0 66 48 113t115 47t114 -46t47 -114q0 -67 -47.5 -113.5t-115.5 -46.5zM111 592q0 -32 21.5 -56.5t53.5 -24.5t53.5 24.5t21.5 56.5t-21.5 56.5t-53.5 24.5t-53.5 -24.5t-21.5 -56.5z" />
    <glyph glyph-name="plusminus" unicode="&#xb1;" horiz-adv-x="594" 
d="M249 317h-161v91h161v157h96v-157h162v-91h-162v-163h-96v163zM98 0v96h399v-96h-399z" />
    <glyph glyph-name="acute" unicode="&#xb4;" horiz-adv-x="587" 
d="M170 601l116 143h130l-136 -143h-110z" />
    <glyph glyph-name="paragraph" unicode="&#xb6;" horiz-adv-x="587" 
d="M41 479q0 114 76 172.5t196 58.5h40v-802h-80v338q-103 11 -167.5 71t-64.5 162zM510 -92h-80v802h80v-802z" />
    <glyph glyph-name="periodcentered" unicode="&#xb7;" horiz-adv-x="254" 
d="M51 275q0 31 22.5 53.5t53.5 22.5q32 0 54 -22t22 -54t-22 -54t-54 -22q-31 0 -53.5 22.5t-22.5 53.5z" />
    <glyph glyph-name="cedilla" unicode="&#xb8;" horiz-adv-x="587" 
d="M268 -224q-42 0 -79 15l14 65q26 -7 30 -8q18 -2 24 -2q47 0 47 33q0 35 -67 35l31 97h74l-17 -57q31 -7 51.5 -29.5t20.5 -52.5q0 -48 -39 -72t-90 -24z" />
    <glyph glyph-name="ordmasculine" unicode="&#xba;" horiz-adv-x="440" 
d="M220 312q-82 0 -137.5 55.5t-55.5 138.5q0 82 55 138t138 56t138 -55t55 -139q0 -82 -55 -138t-138 -56zM126 506q0 -44 25.5 -75t68.5 -31t68.5 31t25.5 75t-25.5 75t-68.5 31t-68.5 -31t-25.5 -75z" />
    <glyph glyph-name="guillemotright" unicode="&#xbb;" horiz-adv-x="507" 
d="M378 285l-132 190h105l136 -190l-136 -190h-105zM35 95l132 190l-132 190h105l136 -190l-136 -190h-105z" />
    <glyph glyph-name="onequarter" unicode="&#xbc;" horiz-adv-x="807" 
d="M472 143l164 237h94v-235h41v-69h-41v-76h-81v76h-177v67zM240 0h-91l436 690h91zM57 627l120 63h72v-380h-83v292l-83 -44zM551 145h98v141z" />
    <glyph glyph-name="onehalf" unicode="&#xbd;" horiz-adv-x="807" 
d="M222 0h-91l436 690h91zM568 265l-78 13q9 50 48.5 80.5t91.5 30.5q55 0 93 -33.5t38 -88.5q0 -81 -115 -170q-9 -7 -29 -23h151v-74h-274v61q22 17 45 36q15 13 41 35l27 24q69 59 69 109q0 22 -14 36t-36 14q-20 0 -36 -12q-16 -13 -22 -38zM83 558l-26 69l120 63h72
v-380h-83v292z" />
    <glyph glyph-name="threequarters" unicode="&#xbe;" horiz-adv-x="807" 
d="M472 76v67l164 237h94v-235h41v-69h-41v-76h-81v76h-177zM153 0l436 690h91l-436 -690h-91zM174 301q-53 0 -92.5 27t-51.5 77l77 13q14 -44 64 -44q24 0 42.5 13t18.5 36q0 22 -18 34t-41 12h-41v72h35q25 0 41 13q16 12 16 31q0 18 -15 30q-16 11 -37 11q-46 0 -58 -40
l-77 13q12 48 50.5 74t89.5 26q52 0 91 -27.5t39 -78.5q0 -57 -56 -84q65 -25 65 -92q0 -54 -42.5 -85t-99.5 -31zM649 286l-98 -141h98v141z" />
    <glyph glyph-name="questiondown" unicode="&#xbf;" horiz-adv-x="497" 
d="M261 -202q-94 0 -163.5 56.5t-69.5 149.5q0 80 51 135.5t133 81.5v94h112v-155q-175 -42 -175 -151q0 -48 32 -77t81 -29q46 0 79.5 25t47.5 69l108 -26q-21 -81 -85.5 -127t-150.5 -46zM268 379q-30 0 -52 21.5t-22 52.5t21.5 52.5t52.5 21.5t52.5 -21.5t21.5 -52.5
q0 -30 -21.5 -52t-52.5 -22z" />
    <glyph glyph-name="Agrave" unicode="&#xc0;" horiz-adv-x="735" 
d="M19 0l283 710h130l284 -710h-126l-67 176h-316l-67 -176h-121zM247 280h236l-118 307zM347 786l-163 128h148l137 -128h-122z" />
    <glyph glyph-name="Aacute" unicode="&#xc1;" horiz-adv-x="735" 
d="M19 0l283 710h130l284 -710h-126l-67 176h-316l-67 -176h-121zM247 280h236l-118 307zM387 786h-122l137 128h148z" />
    <glyph glyph-name="Acircumflex" unicode="&#xc2;" horiz-adv-x="735" 
d="M19 0l283 710h130l284 -710h-126l-67 176h-316l-67 -176h-121zM365 587l-118 -307h236zM285 786h-119l145 128h112l145 -128h-122l-80 62z" />
    <glyph glyph-name="Atilde" unicode="&#xc3;" horiz-adv-x="735" 
d="M19 0l283 710h130l284 -710h-126l-67 176h-316l-67 -176h-121zM247 280h236l-118 307zM178 789q6 55 35.5 93.5t81.5 38.5q38 0 79 -26q35 -26 57 -26q17 0 29 12q11 12 15 34h82q-6 -55 -35.5 -93.5t-81.5 -38.5q-42 0 -78 26q-16 11 -30 18q-14 8 -28 8q-34 0 -44 -46
h-82z" />
    <glyph glyph-name="Adieresis" unicode="&#xc4;" horiz-adv-x="735" 
d="M19 0l283 710h130l284 -710h-126l-67 176h-316l-67 -176h-121zM365 587l-118 -307h236zM182 847q0 29 20 48.5t49 19.5q30 0 49.5 -19t19.5 -49q0 -29 -20 -48.5t-49 -19.5t-49 19.5t-20 48.5zM415 847q0 29 20 48.5t49 19.5t49 -19.5t20 -48.5t-20 -48.5t-49 -19.5
t-49 19.5t-20 48.5z" />
    <glyph glyph-name="Aring" unicode="&#xc5;" horiz-adv-x="735" 
d="M19 0l283 710h130l284 -710h-126l-67 176h-316l-67 -176h-121zM257 857q0 45 32 75.5t78 30.5q64 0 96 -52q14 -26 14 -54q0 -45 -32 -75.5t-78 -30.5q-68 0 -95 53q-15 24 -15 53zM247 280h236l-118 307zM322 857q0 -18 13.5 -32t31.5 -14q19 0 32 13.5t13 32.5
q0 20 -13 33t-32 13t-32 -13.5t-13 -32.5z" />
    <glyph glyph-name="AE" unicode="&#xc6;" horiz-adv-x="1015" 
d="M19 0l452 710h476v-105h-300v-186h270v-105h-270v-209h310v-105h-430v176h-264l-108 -176h-136zM527 604l-200 -324h200v324z" />
    <glyph glyph-name="Ccedilla" unicode="&#xc7;" horiz-adv-x="733" 
d="M46 350q0 100 41.5 186t122.5 140t183 54t182 -52t115 -147l-117 -33q-26 57 -72.5 88.5t-108.5 31.5q-101 0 -160.5 -80.5t-59.5 -186.5q0 -105 59.5 -182t162.5 -77q127 0 186 120l117 -33q-30 -84 -101.5 -136.5t-162.5 -60.5l-10 -33q31 -9 51.5 -31.5t20.5 -53.5
q0 -58 -62 -86q-30 -12 -69 -12q-44 0 -84 15l15 68q26 -7 30 -8q18 -2 26 -2q21 0 35 9q12 9 12 24q0 35 -67 35l24 75q-138 12 -223.5 118.5t-85.5 249.5z" />
    <glyph glyph-name="Egrave" unicode="&#xc8;" horiz-adv-x="568" 
d="M70 710h430v-105h-310v-186h280v-105h-280v-209h320v-105h-440v710zM102 914h148l137 -128h-122z" />
    <glyph glyph-name="Eacute" unicode="&#xc9;" horiz-adv-x="568" 
d="M70 710h430v-105h-310v-186h280v-105h-280v-209h320v-105h-440v710zM305 786h-122l137 128h148z" />
    <glyph glyph-name="Ecircumflex" unicode="&#xca;" horiz-adv-x="568" 
d="M70 710h430v-105h-310v-186h280v-105h-280v-209h320v-105h-440v710zM203 786h-119l145 128h112l145 -128h-122l-80 62z" />
    <glyph glyph-name="Edieresis" unicode="&#xcb;" horiz-adv-x="568" 
d="M70 710h430v-105h-310v-186h280v-105h-280v-209h320v-105h-440v710zM169 779q-29 0 -49 19.5t-20 48.5t20 48.5t49 19.5q30 0 49.5 -19t19.5 -49q0 -29 -20 -48.5t-49 -19.5zM402 779q-29 0 -49 19.5t-20 48.5t20 48.5t49 19.5t49 -19.5t20 -48.5t-20 -48.5t-49 -19.5z
" />
    <glyph glyph-name="Igrave" unicode="&#xcc;" horiz-adv-x="262" 
d="M70 0v710h122v-710h-122zM111 786l-163 128h148l137 -128h-122z" />
    <glyph glyph-name="Iacute" unicode="&#xcd;" horiz-adv-x="262" 
d="M70 0v710h122v-710h-122zM29 786l137 128h148l-163 -128h-122z" />
    <glyph glyph-name="Icircumflex" unicode="&#xce;" horiz-adv-x="262" 
d="M192 0h-122v710h122v-710zM-70 786l145 128h112l145 -128h-122l-80 62l-81 -62h-119z" />
    <glyph glyph-name="Idieresis" unicode="&#xcf;" horiz-adv-x="262" 
d="M192 0h-122v710h122v-710zM-54 847q0 29 19.5 48.5t49.5 19.5t49.5 -19t19.5 -49q0 -29 -20 -48.5t-49 -19.5q-30 0 -49.5 19t-19.5 49zM248 779q-29 0 -49 19.5t-20 48.5t20 48.5t49 19.5t49 -19.5t20 -48.5t-20 -48.5t-49 -19.5z" />
    <glyph glyph-name="Eth" unicode="&#xd0;" horiz-adv-x="761" 
d="M80 317h-82v99h82v294h259q164 0 270 -94.5t106 -259.5q0 -162 -105 -259t-271 -97h-259v317zM333 601h-131v-185h154v-99h-154v-208h131q115 0 185.5 65t70.5 181q0 115 -69 180.5t-187 65.5z" />
    <glyph glyph-name="Ntilde" unicode="&#xd1;" horiz-adv-x="721" 
d="M70 0v710h108l354 -508v508h119v-710h-108l-354 510v-510h-119zM172 789q6 55 35.5 93.5t81.5 38.5q38 0 79 -26q35 -26 57 -26q17 0 29 12q11 12 15 34h82q-6 -55 -35.5 -93.5t-81.5 -38.5q-42 0 -78 26q-16 11 -30 18q-14 8 -28 8q-34 0 -44 -46h-82z" />
    <glyph glyph-name="Ograve" unicode="&#xd2;" horiz-adv-x="810" 
d="M405 -20q-156 0 -257.5 107t-101.5 267q0 158 100.5 267t259.5 109q157 0 257.5 -106.5t100.5 -267.5q0 -158 -100 -267t-259 -109zM405 618q-106 0 -169.5 -76.5t-63.5 -186.5q0 -108 63.5 -185.5t169.5 -77.5t169.5 76.5t63.5 186.5q0 109 -62.5 186t-170.5 77z
M385 786l-163 128h148l137 -128h-122z" />
    <glyph glyph-name="Oacute" unicode="&#xd3;" horiz-adv-x="810" 
d="M46 354q0 158 100.5 267t259.5 109q157 0 257.5 -106.5t100.5 -267.5q0 -158 -100 -267t-259 -109q-156 0 -257.5 107t-101.5 267zM172 355q0 -108 63.5 -185.5t169.5 -77.5t169.5 76.5t63.5 186.5q0 109 -62.5 186t-170.5 77q-106 0 -169.5 -76.5t-63.5 -186.5zM303 786
l137 128h148l-163 -128h-122z" />
    <glyph glyph-name="Ocircumflex" unicode="&#xd4;" horiz-adv-x="810" 
d="M405 -20q-156 0 -257.5 107t-101.5 267q0 158 100.5 267t259.5 109q157 0 257.5 -106.5t100.5 -267.5q0 -158 -100 -267t-259 -109zM172 355q0 -108 63.5 -185.5t169.5 -77.5t169.5 76.5t63.5 186.5q0 109 -62.5 186t-170.5 77q-106 0 -169.5 -76.5t-63.5 -186.5z
M323 786h-119l145 128h112l145 -128h-122l-80 62z" />
    <glyph glyph-name="Otilde" unicode="&#xd5;" horiz-adv-x="810" 
d="M405 -20q-156 0 -257.5 107t-101.5 267q0 158 100.5 267t259.5 109q157 0 257.5 -106.5t100.5 -267.5q0 -158 -100 -267t-259 -109zM405 618q-106 0 -169.5 -76.5t-63.5 -186.5q0 -108 63.5 -185.5t169.5 -77.5t169.5 76.5t63.5 186.5q0 109 -62.5 186t-170.5 77z
M298 789h-82q6 55 35.5 93.5t81.5 38.5q38 0 79 -26q35 -26 57 -26q17 0 29 12q11 12 15 34h82q-6 -55 -35.5 -93.5t-81.5 -38.5q-42 0 -78 26q-16 11 -30 18q-14 8 -28 8q-34 0 -44 -46z" />
    <glyph glyph-name="Odieresis" unicode="&#xd6;" horiz-adv-x="810" 
d="M46 354q0 158 100.5 267t259.5 109q157 0 257.5 -106.5t100.5 -267.5q0 -158 -100 -267t-259 -109q-156 0 -257.5 107t-101.5 267zM405 618q-106 0 -169.5 -76.5t-63.5 -186.5q0 -108 63.5 -185.5t169.5 -77.5t169.5 76.5t63.5 186.5q0 109 -62.5 186t-170.5 77zM220 847
q0 29 20 48.5t49 19.5q30 0 49.5 -19t19.5 -49q0 -29 -20 -48.5t-49 -19.5t-49 19.5t-20 48.5zM522 779q-29 0 -49 19.5t-20 48.5t20 48.5t49 19.5t49 -19.5t20 -48.5t-20 -48.5t-49 -19.5z" />
    <glyph glyph-name="multiply" unicode="&#xd7;" horiz-adv-x="594" 
d="M158 73l-64 64l140 140l-133 133l64 64l133 -133l132 133l64 -64l-133 -133l140 -140l-64 -64l-139 140z" />
    <glyph glyph-name="Oslash" unicode="&#xd8;" horiz-adv-x="810" 
d="M46 355q0 157 100.5 266t258.5 109q105 0 183 -49l48 64h118l-92 -123q102 -105 102 -267q0 -157 -100.5 -266t-257.5 -109q-97 0 -184 49l-48 -64h-118l92 123q-102 105 -102 267zM406 621q-108 0 -172.5 -77.5t-64.5 -189.5q0 -101 50 -170l302 407q-55 30 -115 30z
M289 119q56 -30 115 -30q108 0 172.5 77.5t64.5 189.5q0 102 -50 170z" />
    <glyph glyph-name="Ugrave" unicode="&#xd9;" horiz-adv-x="716" 
d="M62 282v428h122v-423q0 -84 45.5 -139.5t128.5 -55.5t128.5 54.5t45.5 140.5v423h122v-428q0 -135 -80.5 -218.5t-217.5 -83.5q-134 0 -214 82t-80 220zM175 914h148l137 -128h-122z" />
    <glyph glyph-name="Uacute" unicode="&#xda;" horiz-adv-x="716" 
d="M356 -20q-134 0 -214 82t-80 220v428h122v-423q0 -84 45.5 -139.5t128.5 -55.5t128.5 54.5t45.5 140.5v423h122v-428q0 -135 -80.5 -218.5t-217.5 -83.5zM378 786h-122l137 128h148z" />
    <glyph glyph-name="Ucircumflex" unicode="&#xdb;" horiz-adv-x="716" 
d="M356 -20q-134 0 -214 82t-80 220v428h122v-423q0 -84 45.5 -139.5t128.5 -55.5t128.5 54.5t45.5 140.5v423h122v-428q0 -135 -80.5 -218.5t-217.5 -83.5zM157 786l145 128h112l145 -128h-122l-80 62l-81 -62h-119z" />
    <glyph glyph-name="Udieresis" unicode="&#xdc;" horiz-adv-x="716" 
d="M62 710h122v-423q0 -84 45.5 -139.5t128.5 -55.5t128.5 54.5t45.5 140.5v423h122v-428q0 -135 -80.5 -218.5t-217.5 -83.5q-134 0 -214 82t-80 220v428zM242 779q-29 0 -49 19.5t-20 48.5t20 48.5t49 19.5q30 0 49.5 -19t19.5 -49q0 -29 -20 -48.5t-49 -19.5zM475 779
q-29 0 -49 19.5t-20 48.5t20 48.5t49 19.5t49 -19.5t20 -48.5t-20 -48.5t-49 -19.5z" />
    <glyph glyph-name="Yacute" unicode="&#xdd;" horiz-adv-x="648" 
d="M263 280l-249 430h138l174 -318l173 318h135l-249 -430v-280h-122v280zM343 786h-122l137 128h148z" />
    <glyph glyph-name="Thorn" unicode="&#xde;" horiz-adv-x="587" 
d="M70 710h120v-120h95q120 0 195.5 -58t75.5 -176q0 -112 -79 -172t-197 -60q-38 0 -90 7v-131h-120v710zM190 484v-247q49 -7 85 -7q70 0 113.5 30t43.5 97q0 65 -41 96t-108 31h-93z" />
    <glyph glyph-name="germandbls" unicode="&#xdf;" horiz-adv-x="600" 
d="M177 0h-115v519q0 104 64 170.5t169 66.5q92 0 160 -54t68 -145q0 -103 -88 -156q61 -22 93.5 -72.5t32.5 -116.5q0 -97 -66 -159.5t-164 -62.5q-54 0 -94 16l17 98q17 -6 31 -8q15 -4 34 -4q54 0 89 34t35 88q0 58 -39 94t-98 36h-32v97h22q47 0 79 29.5t32 76.5
q0 46 -32.5 75.5t-79.5 29.5q-56 0 -87 -37.5t-31 -95.5v-519z" />
    <glyph glyph-name="agrave" unicode="&#xe0;" horiz-adv-x="554" 
d="M222 -15q-76 0 -130.5 44.5t-54.5 119.5q0 82 63 124.5t150 42.5q68 0 128 -25v33q0 52 -28.5 85t-79.5 33q-36 0 -65.5 -19t-42.5 -53l-106 24q19 67 80.5 105.5t135.5 38.5q97 0 158.5 -60.5t61.5 -158.5v-319h-105l-4 69q-24 -42 -67 -63t-94 -21zM268 235
q-45 0 -80 -19.5t-35 -61.5q0 -37 28.5 -57t67.5 -20q54 0 91.5 34t37.5 88v12q-24 10 -53 18q-29 6 -57 6zM114 744h130l116 -143h-110z" />
    <glyph glyph-name="aacute" unicode="&#xe1;" horiz-adv-x="554" 
d="M37 149q0 82 63 124.5t150 42.5q68 0 128 -25v33q0 52 -28.5 85t-79.5 33q-36 0 -65.5 -19t-42.5 -53l-106 24q19 67 80.5 105.5t135.5 38.5q97 0 158.5 -60.5t61.5 -158.5v-319h-105l-4 69q-24 -42 -67 -63t-94 -21q-76 0 -130.5 44.5t-54.5 119.5zM153 154
q0 -37 28.5 -57t67.5 -20q54 0 91.5 34t37.5 88v12q-24 10 -53 18q-29 6 -57 6q-45 0 -80 -19.5t-35 -61.5zM298 601h-110l116 143h130z" />
    <glyph glyph-name="acircumflex" unicode="&#xe2;" horiz-adv-x="554" 
d="M37 149q0 82 63 124.5t150 42.5q68 0 128 -25v33q0 52 -28.5 85t-79.5 33q-36 0 -65.5 -19t-42.5 -53l-106 24q19 67 80.5 105.5t135.5 38.5q97 0 158.5 -60.5t61.5 -158.5v-319h-105l-4 69q-24 -42 -67 -63t-94 -21q-76 0 -130.5 44.5t-54.5 119.5zM153 154
q0 -37 28.5 -57t67.5 -20q54 0 91.5 34t37.5 88v12q-24 10 -53 18q-29 6 -57 6q-45 0 -80 -19.5t-35 -61.5zM99 601l129 143h93l129 -143h-105l-71 71l-73 -71h-102z" />
    <glyph glyph-name="atilde" unicode="&#xe3;" horiz-adv-x="554" 
d="M222 -15q-76 0 -130.5 44.5t-54.5 119.5q0 82 63 124.5t150 42.5q68 0 128 -25v33q0 52 -28.5 85t-79.5 33q-36 0 -65.5 -19t-42.5 -53l-106 24q19 67 80.5 105.5t135.5 38.5q97 0 158.5 -60.5t61.5 -158.5v-319h-105l-4 69q-24 -42 -67 -63t-94 -21zM187 602h-80
q5 54 30 93.5t73 39.5q37 0 70 -25t49 -25q13 0 22 12q10 11 11 33h80q-5 -52 -30 -92.5t-73 -40.5q-37 0 -69 25q-11 9 -26 18q-11 7 -24 7t-22 -11q-10 -13 -11 -34zM153 154q0 -37 28.5 -57t67.5 -20q54 0 91.5 34t37.5 88v12q-24 10 -53 18q-29 6 -57 6q-45 0 -80 -19.5
t-35 -61.5z" />
    <glyph glyph-name="adieresis" unicode="&#xe4;" horiz-adv-x="554" 
d="M37 149q0 82 63 124.5t150 42.5q68 0 128 -25v33q0 52 -28.5 85t-79.5 33q-36 0 -65.5 -19t-42.5 -53l-106 24q19 67 80.5 105.5t135.5 38.5q97 0 158.5 -60.5t61.5 -158.5v-319h-105l-4 69q-24 -42 -67 -63t-94 -21q-76 0 -130.5 44.5t-54.5 119.5zM268 235
q-45 0 -80 -19.5t-35 -61.5q0 -37 28.5 -57t67.5 -20q54 0 91.5 34t37.5 88v12q-24 10 -53 18q-29 6 -57 6zM173 604q-26 0 -45.5 19.5t-19.5 45.5t19.5 45.5t45.5 19.5q35 0 57 -32q8 -16 8 -33q0 -27 -19 -46t-46 -19zM319 637q-9 13 -9 32q0 27 19 46t46 19
q26 0 45.5 -19t19.5 -46q0 -26 -19.5 -45.5t-45.5 -19.5q-40 0 -56 33z" />
    <glyph glyph-name="aring" unicode="&#xe5;" horiz-adv-x="554" 
d="M222 -15q-76 0 -130.5 44.5t-54.5 119.5q0 82 63 124.5t150 42.5q68 0 128 -25v33q0 52 -28.5 85t-79.5 33q-36 0 -65.5 -19t-42.5 -53l-106 24q19 67 80.5 105.5t135.5 38.5q97 0 158.5 -60.5t61.5 -158.5v-319h-105l-4 69q-24 -42 -67 -63t-94 -21zM166 678q0 44 32 74
t76 30q59 0 94 -51q14 -25 14 -53q0 -44 -31.5 -74t-76.5 -30q-63 0 -93 52q-15 22 -15 52zM153 154q0 -37 28.5 -57t67.5 -20q54 0 91.5 34t37.5 88v12q-24 10 -53 18q-29 6 -57 6q-45 0 -80 -19.5t-35 -61.5zM274 725q-19 0 -32.5 -13.5t-13.5 -33.5q0 -19 13.5 -33
t32.5 -14t32.5 13.5t13.5 33.5t-13 33.5t-33 13.5z" />
    <glyph glyph-name="ae" unicode="&#xe6;" horiz-adv-x="891" 
d="M37 150q0 81 61 123.5t147 42.5q33 0 65 -6q32 -8 58 -19v33q0 35 -12 62q-30 56 -91 56q-36 0 -63 -19.5t-40 -52.5l-106 24q19 67 78.5 105.5t132.5 38.5q109 0 165 -87q71 87 183 87q110 0 175 -78t65 -192v-34h-377q6 -65 42.5 -107t99.5 -42q80 0 123 73l101 -39
q-28 -63 -89 -98.5t-133 -35.5q-63 0 -116.5 28t-87.5 79q-22 -52 -73.5 -79.5t-112.5 -27.5q-78 0 -136.5 44t-58.5 121zM153 154q0 -36 27.5 -56.5t64.5 -20.5q52 0 87.5 34.5t35.5 87.5v13q-17 7 -51 17q-27 6 -54 6q-44 0 -77 -20t-33 -61zM611 445q-52 0 -86 -37
t-45 -92h255q-6 54 -39 91.5t-85 37.5z" />
    <glyph glyph-name="ccedilla" unicode="&#xe7;" horiz-adv-x="561" 
d="M260 -12q-99 13 -160 90t-61 180q0 115 73 197.5t188 82.5q79 0 140.5 -42t82.5 -116l-109 -26q-35 80 -116 80q-65 0 -103 -53.5t-38 -121.5q0 -69 37.5 -119.5t103.5 -50.5q41 0 73.5 21t48.5 58l108 -25q-18 -63 -72.5 -105t-121.5 -51l-10 -33q31 -7 51.5 -29.5
t20.5 -52.5q0 -48 -39 -72t-90 -24q-41 0 -79 15l14 65q26 -7 30 -8q18 -2 24 -2q47 0 47 33q0 35 -67 35z" />
    <glyph glyph-name="egrave" unicode="&#xe8;" horiz-adv-x="581" 
d="M305 -15q-117 0 -191.5 79t-74.5 198q0 113 72 194.5t185 81.5q114 0 181.5 -76.5t67.5 -193.5v-34h-387q6 -64 45 -106.5t102 -42.5q82 0 128 73l101 -39q-29 -65 -91.5 -99.5t-137.5 -34.5zM296 445q-54 0 -89 -36.5t-46 -92.5h264q-9 56 -41.5 92.5t-87.5 36.5z
M136 744h130l116 -143h-110z" />
    <glyph glyph-name="eacute" unicode="&#xe9;" horiz-adv-x="581" 
d="M39 262q0 113 72 194.5t185 81.5q114 0 181.5 -76.5t67.5 -193.5v-34h-387q6 -64 45 -106.5t102 -42.5q82 0 128 73l101 -39q-29 -65 -91.5 -99.5t-137.5 -34.5q-117 0 -191.5 79t-74.5 198zM161 316h264q-9 56 -41.5 92.5t-87.5 36.5q-54 0 -89 -36.5t-46 -92.5z
M320 601h-110l116 143h130z" />
    <glyph glyph-name="ecircumflex" unicode="&#xea;" horiz-adv-x="581" 
d="M305 -15q-117 0 -191.5 79t-74.5 198q0 113 72 194.5t185 81.5q114 0 181.5 -76.5t67.5 -193.5v-34h-387q6 -64 45 -106.5t102 -42.5q82 0 128 73l101 -39q-29 -65 -91.5 -99.5t-137.5 -34.5zM121 601l129 143h93l129 -143h-105l-71 71l-73 -71h-102zM161 316h264
q-9 56 -41.5 92.5t-87.5 36.5q-54 0 -89 -36.5t-46 -92.5z" />
    <glyph glyph-name="edieresis" unicode="&#xeb;" horiz-adv-x="581" 
d="M305 -15q-117 0 -191.5 79t-74.5 198q0 113 72 194.5t185 81.5q114 0 181.5 -76.5t67.5 -193.5v-34h-387q6 -64 45 -106.5t102 -42.5q82 0 128 73l101 -39q-29 -65 -91.5 -99.5t-137.5 -34.5zM296 445q-54 0 -89 -36.5t-46 -92.5h264q-9 56 -41.5 92.5t-87.5 36.5z
M332 669q0 27 19 46t46 19q26 0 45.5 -19t19.5 -46q0 -26 -19.5 -45.5t-45.5 -19.5q-40 0 -56 33q-9 13 -9 32zM195 604q-26 0 -45.5 19.5t-19.5 45.5t19.5 45.5t45.5 19.5q35 0 57 -32q8 -16 8 -33q0 -27 -19 -46t-46 -19z" />
    <glyph glyph-name="igrave" unicode="&#xec;" horiz-adv-x="239" 
d="M62 0v523h115v-523h-115zM94 601l-136 143h130l116 -143h-110z" />
    <glyph glyph-name="iacute" unicode="&#xed;" horiz-adv-x="239" 
d="M62 0v523h115v-523h-115zM32 601l116 143h130l-136 -143h-110z" />
    <glyph glyph-name="icircumflex" unicode="&#xee;" horiz-adv-x="239" 
d="M177 0h-115v523h115v-523zM-57 601l129 143h93l129 -143h-105l-71 71l-73 -71h-102z" />
    <glyph glyph-name="idieresis" unicode="&#xef;" horiz-adv-x="239" 
d="M177 0h-115v523h115v-523zM-48 669q0 26 19 45.5t46 19.5q35 0 57 -32q8 -16 8 -33q0 -27 -19 -46t-46 -19q-26 0 -45.5 19.5t-19.5 45.5zM163 637q-9 13 -9 32q0 27 19 46t46 19q26 0 45.5 -19t19.5 -46q0 -26 -19.5 -45.5t-45.5 -19.5q-40 0 -56 33z" />
    <glyph glyph-name="eth" unicode="&#xf0;" horiz-adv-x="623" 
d="M305 -15q-114 0 -190 76.5t-76 191.5q0 109 69.5 189t177.5 80q92 0 148 -65q-37 81 -91 147l-96 -46l-33 69l75 36q-27 27 -73 62l117 31q29 -21 54 -45l89 43l33 -69l-68 -33q135 -170 135 -363q0 -130 -71 -217t-200 -87zM308 420q-68 0 -109.5 -47.5t-41.5 -117.5
q0 -68 41.5 -117t109.5 -49t109 48t41 118t-40.5 117.5t-109.5 47.5z" />
    <glyph glyph-name="ntilde" unicode="&#xf1;" horiz-adv-x="587" 
d="M62 523h105l4 -72q23 42 66 64.5t94 22.5q93 0 143.5 -64.5t50.5 -162.5v-311h-115v298q0 59 -26 97.5t-82 38.5q-55 0 -90 -37t-35 -93v-304h-115v523zM206 602h-80q5 54 30 93.5t73 39.5q37 0 70 -25t49 -25q13 0 22 12q10 11 11 33h80q-5 -52 -30 -92.5t-73 -40.5
q-37 0 -69 25q-11 9 -26 18q-11 7 -24 7t-22 -11q-10 -13 -11 -34z" />
    <glyph glyph-name="ograve" unicode="&#xf2;" horiz-adv-x="614" 
d="M305 -15q-115 0 -190.5 79.5t-75.5 197.5t75.5 197t194.5 79q116 0 191 -78.5t75 -197.5q0 -118 -75.5 -197.5t-194.5 -79.5zM307 434q-68 0 -109 -50.5t-41 -121.5q0 -69 41 -121t109 -52t109 51t41 122t-40.5 121.5t-109.5 50.5zM283 601l-136 143h130l116 -143h-110z
" />
    <glyph glyph-name="oacute" unicode="&#xf3;" horiz-adv-x="614" 
d="M305 -15q-115 0 -190.5 79.5t-75.5 197.5t75.5 197t194.5 79q116 0 191 -78.5t75 -197.5q0 -118 -75.5 -197.5t-194.5 -79.5zM157 262q0 -69 41 -121t109 -52t109 51t41 122t-40.5 121.5t-109.5 50.5q-68 0 -109 -50.5t-41 -121.5zM221 601l116 143h130l-136 -143h-110z
" />
    <glyph glyph-name="ocircumflex" unicode="&#xf4;" horiz-adv-x="614" 
d="M305 -15q-115 0 -190.5 79.5t-75.5 197.5t75.5 197t194.5 79q116 0 191 -78.5t75 -197.5q0 -118 -75.5 -197.5t-194.5 -79.5zM307 434q-68 0 -109 -50.5t-41 -121.5q0 -69 41 -121t109 -52t109 51t41 122t-40.5 121.5t-109.5 50.5zM234 601h-102l129 143h93l129 -143
h-105l-71 71z" />
    <glyph glyph-name="otilde" unicode="&#xf5;" horiz-adv-x="614" 
d="M39 262q0 118 75.5 197t194.5 79q116 0 191 -78.5t75 -197.5q0 -118 -75.5 -197.5t-194.5 -79.5q-115 0 -190.5 79.5t-75.5 197.5zM307 434q-68 0 -109 -50.5t-41 -121.5q0 -69 41 -121t109 -52t109 51t41 122t-40.5 121.5t-109.5 50.5zM220 602h-80q5 54 30 93.5
t73 39.5q37 0 70 -25t49 -25q13 0 22 12q10 11 11 33h80q-5 -52 -30 -92.5t-73 -40.5q-37 0 -69 25q-11 9 -26 18q-11 7 -24 7t-22 -11q-10 -13 -11 -34z" />
    <glyph glyph-name="odieresis" unicode="&#xf6;" horiz-adv-x="614" 
d="M39 262q0 118 75.5 197t194.5 79q116 0 191 -78.5t75 -197.5q0 -118 -75.5 -197.5t-194.5 -79.5q-115 0 -190.5 79.5t-75.5 197.5zM307 434q-68 0 -109 -50.5t-41 -121.5q0 -69 41 -121t109 -52t109 51t41 122t-40.5 121.5t-109.5 50.5zM343 669q0 27 19 46t46 19
q26 0 45.5 -19t19.5 -46q0 -26 -19.5 -45.5t-45.5 -19.5q-40 0 -56 33q-9 13 -9 32zM141 669q0 26 19.5 45.5t45.5 19.5q35 0 57 -32q8 -16 8 -33q0 -27 -19 -46t-46 -19q-26 0 -45.5 19.5t-19.5 45.5z" />
    <glyph glyph-name="divide" unicode="&#xf7;" horiz-adv-x="594" 
d="M88 326h418v-101h-418v101zM266 389q-31 15 -31 53q0 26 18 44t44 18q16 0 32 -8q30 -19 30 -54q0 -26 -18 -44t-44 -18q-17 0 -31 9zM235 109q0 26 18 44t44 18q16 0 32 -8q30 -19 30 -54q0 -26 -18 -44t-44 -18q-17 0 -31 9q-31 16 -31 53z" />
    <glyph glyph-name="oslash" unicode="&#xf8;" horiz-adv-x="614" 
d="M113 68q-74 82 -74 194q0 118 75.5 197t194.5 79q68 0 124 -31l30 41h105l-67 -92q74 -82 74 -194q0 -118 -75.5 -197.5t-194.5 -79.5q-68 0 -124 31l-30 -41h-105zM433 362l-190 -260q30 -15 64 -15q69 0 110.5 52t41.5 123q0 57 -26 100zM307 436q-68 0 -110 -51.5
t-42 -122.5q0 -55 26 -101l190 260q-30 15 -64 15z" />
    <glyph glyph-name="ugrave" unicode="&#xf9;" horiz-adv-x="586" 
d="M62 231v292h115v-294q0 -60 29 -100t87 -40t87 40t29 100v294h115v-292q0 -109 -61.5 -177.5t-170.5 -68.5q-107 0 -168.5 68t-61.5 178zM268 601l-136 143h130l116 -143h-110z" />
    <glyph glyph-name="uacute" unicode="&#xfa;" horiz-adv-x="586" 
d="M292 -15q-107 0 -168.5 68t-61.5 178v292h115v-294q0 -60 29 -100t87 -40t87 40t29 100v294h115v-292q0 -109 -61.5 -177.5t-170.5 -68.5zM206 601l116 143h130l-136 -143h-110z" />
    <glyph glyph-name="ucircumflex" unicode="&#xfb;" horiz-adv-x="586" 
d="M62 231v292h115v-294q0 -60 29 -100t87 -40t87 40t29 100v294h115v-292q0 -109 -61.5 -177.5t-170.5 -68.5q-107 0 -168.5 68t-61.5 178zM117 601l129 143h93l129 -143h-105l-71 71l-73 -71h-102z" />
    <glyph glyph-name="udieresis" unicode="&#xfc;" horiz-adv-x="586" 
d="M62 523h115v-294q0 -60 29 -100t87 -40t87 40t29 100v294h115v-292q0 -109 -61.5 -177.5t-170.5 -68.5q-107 0 -168.5 68t-61.5 178v292zM337 637q-9 13 -9 32q0 27 19 46t46 19q26 0 45.5 -19t19.5 -46q0 -26 -19.5 -45.5t-45.5 -19.5q-40 0 -56 33zM191 604
q-26 0 -45.5 19.5t-19.5 45.5t19.5 45.5t45.5 19.5q35 0 57 -32q8 -16 8 -33q0 -27 -19 -46t-46 -19z" />
    <glyph glyph-name="yacute" unicode="&#xfd;" horiz-adv-x="545" 
d="M227 5l-213 518h126l141 -391l128 391h122l-222 -586q-56 -145 -177 -145q-49 0 -88 21l25 91q7 -3 25 -9q14 -3 27 -3q61 0 90 72zM296 601h-110l116 143h130z" />
    <glyph glyph-name="thorn" unicode="&#xfe;" horiz-adv-x="632" 
d="M62 744h115v-297q60 91 172 91q108 0 176 -81t68 -193q0 -113 -69 -196t-181 -83q-106 0 -166 84v-267h-115v942zM325 434q-68 0 -109 -50.5t-41 -121.5q0 -69 41 -121t109 -52t109 51t41 122t-40.5 121.5t-109.5 50.5z" />
    <glyph glyph-name="ydieresis" unicode="&#xff;" horiz-adv-x="545" 
d="M14 523h126l141 -391l128 391h122l-222 -586q-56 -145 -177 -145q-49 0 -88 21l25 91q7 -3 25 -9q14 -3 27 -3q61 0 90 72l16 41zM308 669q0 27 19 46t46 19q26 0 45.5 -19t19.5 -46q0 -26 -19.5 -45.5t-45.5 -19.5q-40 0 -56 33q-9 13 -9 32zM106 669q0 26 19.5 45.5
t45.5 19.5q35 0 57 -32q8 -16 8 -33q0 -27 -19 -46t-46 -19q-26 0 -45.5 19.5t-19.5 45.5z" />
    <glyph glyph-name="Amacron" unicode="&#x100;" horiz-adv-x="735" 
d="M19 0l283 710h130l284 -710h-126l-67 176h-316l-67 -176h-121zM247 280h236l-118 307zM542 791h-350v88h350v-88z" />
    <glyph glyph-name="amacron" unicode="&#x101;" horiz-adv-x="554" 
d="M37 149q0 82 63 124.5t150 42.5q68 0 128 -25v33q0 52 -28.5 85t-79.5 33q-36 0 -65.5 -19t-42.5 -53l-106 24q19 67 80.5 105.5t135.5 38.5q97 0 158.5 -60.5t61.5 -158.5v-319h-105l-4 69q-24 -42 -67 -63t-94 -21q-76 0 -130.5 44.5t-54.5 119.5zM268 235
q-45 0 -80 -19.5t-35 -61.5q0 -37 28.5 -57t67.5 -20q54 0 91.5 34t37.5 88v12q-24 10 -53 18q-29 6 -57 6zM121 693h306v-83h-306v83z" />
    <glyph glyph-name="Abreve" unicode="&#x102;" horiz-adv-x="735" 
d="M19 0l283 710h130l284 -710h-126l-67 176h-316l-67 -176h-121zM247 280h236l-118 307zM224 846q-24 29 -32 73h95q16 -61 80 -61q65 0 80 61h95q-11 -65 -59 -101.5t-116 -36.5q-94 0 -143 65z" />
    <glyph glyph-name="abreve" unicode="&#x103;" horiz-adv-x="554" 
d="M37 149q0 82 63 124.5t150 42.5q68 0 128 -25v33q0 52 -28.5 85t-79.5 33q-36 0 -65.5 -19t-42.5 -53l-106 24q19 67 80.5 105.5t135.5 38.5q97 0 158.5 -60.5t61.5 -158.5v-319h-105l-4 69q-24 -42 -67 -63t-94 -21q-76 0 -130.5 44.5t-54.5 119.5zM268 235
q-45 0 -80 -19.5t-35 -61.5q0 -37 28.5 -57t67.5 -20q54 0 91.5 34t37.5 88v12q-24 10 -53 18q-29 6 -57 6zM111 733h92q16 -57 71 -57q56 0 71 57h92q-11 -62 -55 -97.5t-108 -35.5q-63 0 -107.5 35.5t-55.5 97.5z" />
    <glyph glyph-name="Aogonek" unicode="&#x104;" horiz-adv-x="735" 
d="M19 0l283 710h130l284 -710q-90 -69 -90 -107q0 -16 11.5 -24.5t27.5 -8.5q28 0 49 9l13 -74q-53 -17 -87 -17q-45 0 -77.5 23t-32.5 67q0 61 87 132h-27l-67 176h-316l-67 -176h-121zM365 587l-118 -307h236z" />
    <glyph glyph-name="aogonek" unicode="&#x105;" horiz-adv-x="554" 
d="M37 149q0 82 63 124.5t150 42.5q68 0 128 -25v33q0 52 -28.5 85t-79.5 33q-36 0 -65.5 -19t-42.5 -53l-106 24q19 67 80.5 105.5t135.5 38.5q97 0 158.5 -60.5t61.5 -158.5v-319q-90 -69 -90 -107q0 -16 11.5 -24.5t27.5 -8.5q32 0 49 9l13 -71q-45 -17 -85 -17
q-44 0 -76.5 22.5t-32.5 65.5q0 59 88 131h-10l-4 69q-24 -42 -67 -63t-94 -21q-76 0 -130.5 44.5t-54.5 119.5zM268 235q-45 0 -80 -19.5t-35 -61.5q0 -37 28.5 -57t67.5 -20q54 0 91.5 34t37.5 88v12q-24 10 -53 18q-29 6 -57 6z" />
    <glyph glyph-name="Cacute" unicode="&#x106;" horiz-adv-x="733" 
d="M393 -20q-153 0 -250 106.5t-97 263.5q0 100 41.5 186t122.5 140t183 54t182 -52t115 -147l-117 -33q-26 57 -72.5 88.5t-108.5 31.5q-101 0 -160.5 -80.5t-59.5 -186.5q0 -105 59.5 -182t162.5 -77q127 0 186 120l117 -33q-34 -94 -117 -146.5t-187 -52.5zM412 786h-122
l137 128h148z" />
    <glyph glyph-name="cacute" unicode="&#x107;" horiz-adv-x="561" 
d="M298 -15q-112 0 -185.5 79t-73.5 194t73 197.5t188 82.5q79 0 140.5 -42t82.5 -116l-109 -26q-35 80 -116 80q-65 0 -103 -53.5t-38 -121.5q0 -69 37.5 -119.5t103.5 -50.5q41 0 73.5 21t48.5 58l108 -25q-20 -72 -86 -115t-144 -43zM324 601h-110l116 143h130z" />
    <glyph glyph-name="Cdotaccent" unicode="&#x10a;" horiz-adv-x="733" 
d="M393 -20q-153 0 -250 106.5t-97 263.5q0 100 41.5 186t122.5 140t183 54t182 -52t115 -147l-117 -33q-26 57 -72.5 88.5t-108.5 31.5q-101 0 -160.5 -80.5t-59.5 -186.5q0 -105 59.5 -182t162.5 -77q127 0 186 120l117 -33q-34 -94 -117 -146.5t-187 -52.5zM330 815
q-10 16 -10 36t10 36q8 14 26 26q16 9 36 9t37 -9q16 -10 26 -26q9 -17 9 -36t-9 -36q-12 -18 -26 -26q-16 -10 -37 -10q-20 0 -36 10q-17 9 -26 26z" />
    <glyph glyph-name="cdotaccent" unicode="&#x10b;" horiz-adv-x="561" 
d="M298 -15q-112 0 -185.5 79t-73.5 194t73 197.5t188 82.5q79 0 140.5 -42t82.5 -116l-109 -26q-35 80 -116 80q-65 0 -103 -53.5t-38 -121.5q0 -69 37.5 -119.5t103.5 -50.5q41 0 73.5 21t48.5 58l108 -25q-20 -72 -86 -115t-144 -43zM240 634q-10 16 -10 35t10 35
q18 35 60 35q20 0 36 -9q15 -11 25 -26q9 -16 9 -35t-9 -35q-22 -35 -61 -35q-21 0 -35 10q-16 9 -25 25z" />
    <glyph glyph-name="Ccaron" unicode="&#x10c;" horiz-adv-x="733" 
d="M393 -20q-153 0 -250 106.5t-97 263.5q0 100 41.5 186t122.5 140t183 54t182 -52t115 -147l-117 -33q-26 57 -72.5 88.5t-108.5 31.5q-101 0 -160.5 -80.5t-59.5 -186.5q0 -105 59.5 -182t162.5 -77q127 0 186 120l117 -33q-34 -94 -117 -146.5t-187 -52.5zM191 914h122
l80 -62l81 62h119l-145 -128h-112z" />
    <glyph glyph-name="ccaron" unicode="&#x10d;" horiz-adv-x="561" 
d="M39 258q0 115 73 197.5t188 82.5q79 0 140.5 -42t82.5 -116l-109 -26q-35 80 -116 80q-65 0 -103 -53.5t-38 -121.5q0 -69 37.5 -119.5t103.5 -50.5q41 0 73.5 21t48.5 58l108 -25q-20 -72 -86 -115t-144 -43q-112 0 -185.5 79t-73.5 194zM254 601l-129 143h105l71 -71
l73 71h102l-129 -143h-93z" />
    <glyph glyph-name="Dcaron" unicode="&#x10e;" horiz-adv-x="751" 
d="M329 0h-259v710h259q164 0 270 -94.5t106 -259.5q0 -162 -105 -259t-271 -97zM192 601v-492h131q115 0 185.5 65t70.5 181q0 115 -69 180.5t-187 65.5h-131zM293 786l-145 128h122l80 -62l81 62h119l-145 -128h-112z" />
    <glyph glyph-name="dcaron" unicode="&#x10f;" horiz-adv-x="632" 
d="M283 -15q-107 0 -175.5 81.5t-68.5 192.5q0 112 69.5 195.5t180.5 83.5q106 0 166 -84v290h115v-744h-105l-5 84q-28 -47 -74.5 -73t-102.5 -26zM157 261q0 -69 41 -120.5t109 -51.5t109 51t41 121q0 71 -40 122t-110 51q-68 0 -109 -51t-41 -122zM714 568h-74l17 176
h102z" />
    <glyph glyph-name="Dcroat" unicode="&#x110;" horiz-adv-x="761" 
d="M80 317h-82v99h82v294h259q164 0 270 -94.5t106 -259.5q0 -162 -105 -259t-271 -97h-259v317zM333 601h-131v-185h154v-99h-154v-208h131q115 0 185.5 65t70.5 181q0 115 -69 180.5t-187 65.5z" />
    <glyph glyph-name="dcroat" unicode="&#x111;" horiz-adv-x="632" 
d="M283 -15q-107 0 -175.5 81.5t-68.5 192.5q0 112 69.5 195.5t180.5 83.5q106 0 166 -84v137h-146v81h146v72h115v-72h74v-81h-74v-591h-105l-5 84q-28 -47 -74.5 -73t-102.5 -26zM307 434q-68 0 -109 -51t-41 -122q0 -69 41 -120.5t109 -51.5t109 51t41 121q0 71 -40 122
t-110 51z" />
    <glyph glyph-name="Emacron" unicode="&#x112;" horiz-adv-x="568" 
d="M70 0v710h430v-105h-310v-186h280v-105h-280v-209h320v-105h-440zM460 791h-350v88h350v-88z" />
    <glyph glyph-name="emacron" unicode="&#x113;" horiz-adv-x="581" 
d="M305 -15q-117 0 -191.5 79t-74.5 198q0 113 72 194.5t185 81.5q114 0 181.5 -76.5t67.5 -193.5v-34h-387q6 -64 45 -106.5t102 -42.5q82 0 128 73l101 -39q-29 -65 -91.5 -99.5t-137.5 -34.5zM296 445q-54 0 -89 -36.5t-46 -92.5h264q-9 56 -41.5 92.5t-87.5 36.5z
M143 693h306v-83h-306v83z" />
    <glyph glyph-name="Edotaccent" unicode="&#x116;" horiz-adv-x="568" 
d="M70 710h430v-105h-310v-186h280v-105h-280v-209h320v-105h-440v710zM223 815q-10 16 -10 36t10 36q8 14 26 26q17 9 36 9q21 0 37 -9q16 -10 26 -26q9 -17 9 -36t-9 -36q-12 -18 -26 -26q-16 -10 -37 -10q-20 0 -36 10q-17 9 -26 26z" />
    <glyph glyph-name="edotaccent" unicode="&#x117;" horiz-adv-x="581" 
d="M39 262q0 113 72 194.5t185 81.5q114 0 181.5 -76.5t67.5 -193.5v-34h-387q6 -64 45 -106.5t102 -42.5q82 0 128 73l101 -39q-29 -65 -91.5 -99.5t-137.5 -34.5q-117 0 -191.5 79t-74.5 198zM296 445q-54 0 -89 -36.5t-46 -92.5h264q-9 56 -41.5 92.5t-87.5 36.5z
M226 669q0 19 10 35q18 35 60 35q20 0 36 -9q15 -11 25 -26q9 -16 9 -35t-9 -35q-22 -35 -61 -35q-21 0 -35 10q-16 9 -25 25q-10 16 -10 35z" />
    <glyph glyph-name="Eogonek" unicode="&#x118;" horiz-adv-x="568" 
d="M70 0v710h430v-105h-310v-186h280v-105h-280v-209h320v-105h1q-90 -69 -90 -107q0 -16 11.5 -24.5t27.5 -8.5q28 0 49 9l13 -74q-53 -17 -87 -17q-45 0 -77.5 23t-32.5 67q0 61 87 132h-342z" />
    <glyph glyph-name="eogonek" unicode="&#x119;" horiz-adv-x="581" 
d="M39 262q0 113 72 194.5t185 81.5q114 0 181.5 -76.5t67.5 -193.5v-34h-387q6 -64 45 -106.5t102 -42.5q82 0 128 73l101 -39q-26 -58 -76 -89q-79 -82 -79 -130q0 -40 45 -40q28 0 43 9l13 -71q-42 -17 -80 -17q-47 0 -80.5 23t-33.5 69q0 56 58 114q-24 -2 -39 -2
q-117 0 -191.5 79t-74.5 198zM161 316h264q-9 56 -41.5 92.5t-87.5 36.5q-54 0 -89 -36.5t-46 -92.5z" />
    <glyph glyph-name="Ecaron" unicode="&#x11a;" horiz-adv-x="568" 
d="M70 710h430v-105h-310v-186h280v-105h-280v-209h320v-105h-440v710zM84 914h122l80 -62l81 62h119l-145 -128h-112z" />
    <glyph glyph-name="ecaron" unicode="&#x11b;" horiz-adv-x="581" 
d="M305 -15q-117 0 -191.5 79t-74.5 198q0 113 72 194.5t185 81.5q114 0 181.5 -76.5t67.5 -193.5v-34h-387q6 -64 45 -106.5t102 -42.5q82 0 128 73l101 -39q-29 -65 -91.5 -99.5t-137.5 -34.5zM250 601l-129 143h105l71 -71l73 71h102l-129 -143h-93zM161 316h264
q-9 56 -41.5 92.5t-87.5 36.5q-54 0 -89 -36.5t-46 -92.5z" />
    <glyph glyph-name="Gbreve" unicode="&#x11e;" horiz-adv-x="786" 
d="M46 353q0 157 101 267t259 110q98 0 179.5 -47.5t120.5 -134.5l-116 -39q-58 109 -184 109q-104 0 -169 -78t-65 -185q0 -108 64.5 -185.5t172.5 -77.5q87 0 144 50t64 137h-194v102h319v-67q0 -147 -94 -240.5t-244 -93.5q-155 0 -256.5 107t-101.5 266zM269 846
q-24 29 -32 73h95q16 -61 80 -61q65 0 80 61h95q-11 -65 -59 -101.5t-116 -36.5q-94 0 -143 65z" />
    <glyph glyph-name="gbreve" unicode="&#x11f;" horiz-adv-x="627" 
d="M39 272q0 109 69 187.5t178 78.5q113 0 170 -89l4 74h105v-468q0 -119 -72 -193.5t-193 -74.5q-161 0 -234 136l109 38q46 -73 129 -73q68 0 107 43.5t39 114.5v50q-61 -86 -170 -86q-105 0 -173 77t-68 185zM157 274q0 -65 41 -112.5t106 -47.5t106.5 46.5t41.5 113.5
t-41 113.5t-107 46.5q-64 0 -105.5 -47t-41.5 -113zM140 733h92q16 -57 71 -57q56 0 71 57h92q-11 -62 -55 -97.5t-108 -35.5q-63 0 -107.5 35.5t-55.5 97.5z" />
    <glyph glyph-name="Gdotaccent" unicode="&#x120;" horiz-adv-x="786" 
d="M46 353q0 157 101 267t259 110q98 0 179.5 -47.5t120.5 -134.5l-116 -39q-58 109 -184 109q-104 0 -169 -78t-65 -185q0 -108 64.5 -185.5t172.5 -77.5q87 0 144 50t64 137h-194v102h319v-67q0 -147 -94 -240.5t-244 -93.5q-155 0 -256.5 107t-101.5 266zM340 851
q0 20 10 36q8 14 26 26q16 9 36 9t37 -9q16 -10 26 -26q9 -17 9 -36t-9 -36q-12 -18 -26 -26q-16 -10 -37 -10q-20 0 -36 10q-17 9 -26 26q-10 16 -10 36z" />
    <glyph glyph-name="gdotaccent" unicode="&#x121;" horiz-adv-x="627" 
d="M39 272q0 109 69 187.5t178 78.5q113 0 170 -89l4 74h105v-468q0 -119 -72 -193.5t-193 -74.5q-161 0 -234 136l109 38q46 -73 129 -73q68 0 107 43.5t39 114.5v50q-61 -86 -170 -86q-105 0 -173 77t-68 185zM157 274q0 -65 41 -112.5t106 -47.5t106.5 46.5t41.5 113.5
t-41 113.5t-107 46.5q-64 0 -105.5 -47t-41.5 -113zM243 634q-10 16 -10 35t10 35q18 35 60 35q19 0 36 -9q15 -11 25 -26q9 -16 9 -35t-9 -35q-22 -35 -61 -35q-21 0 -35 10q-16 9 -25 25z" />
    <glyph glyph-name="uni0122" unicode="&#x122;" horiz-adv-x="786" 
d="M404 -20q-155 0 -256.5 107t-101.5 266q0 157 101 267t259 110q98 0 179.5 -47.5t120.5 -134.5l-116 -39q-58 109 -184 109q-104 0 -169 -78t-65 -185q0 -108 64.5 -185.5t172.5 -77.5q87 0 144 50t64 137h-194v102h319v-67q0 -147 -94 -240.5t-244 -93.5zM342 -119
q0 25 18 39.5t43 14.5q41 0 64 -39q9 -18 9 -41q0 -44 -28 -75.5t-72 -47.5l-22 51q24 11 38 24q14 14 17 30q-8 -5 -19 -5q-20 0 -34 14q-14 16 -14 35z" />
    <glyph glyph-name="uni0123" unicode="&#x123;" horiz-adv-x="627" 
d="M39 272q0 109 69 187.5t178 78.5q113 0 170 -89l4 74h105v-468q0 -119 -72 -193.5t-193 -74.5q-161 0 -234 136l109 38q46 -73 129 -73q68 0 107 43.5t39 114.5v50q-61 -86 -170 -86q-105 0 -173 77t-68 185zM157 274q0 -65 41 -112.5t106 -47.5t106.5 46.5t41.5 113.5
t-41 113.5t-107 46.5q-64 0 -105.5 -47t-41.5 -113zM248 620q-10 17 -10 41q0 85 97 121l22 -51q-45 -22 -54 -54q8 5 19 5q20 0 33.5 -14.5t13.5 -34.5q0 -23 -17.5 -37.5t-41.5 -14.5q-42 0 -62 39z" />
    <glyph glyph-name="Hbar" unicode="&#x126;" horiz-adv-x="751" 
d="M-2 529v90h82v91h122v-91h347v91h122v-91h82v-90h-82v-529h-122v306h-347v-306h-122v529h-82zM202 415h347v114h-347v-114z" />
    <glyph glyph-name="hbar" unicode="&#x127;" horiz-adv-x="587" 
d="M62 591h-74v81h74v72h115v-72h146v-81h-146v-131q53 78 154 78q93 0 143.5 -64.5t50.5 -162.5v-311h-115v298q0 59 -26 97.5t-82 38.5q-55 0 -90 -37t-35 -93v-304h-115v591z" />
    <glyph glyph-name="Itilde" unicode="&#x128;" horiz-adv-x="262" 
d="M192 0h-122v710h122v-710zM24 789h-82q4 40 20 71q36 61 97 61q38 0 79 -26q35 -26 57 -26q17 0 29 12q11 12 15 34h82q-6 -55 -35.5 -93.5t-81.5 -38.5q-42 0 -78 26q-16 11 -30 18q-14 8 -28 8q-34 0 -44 -46z" />
    <glyph glyph-name="itilde" unicode="&#x129;" horiz-adv-x="239" 
d="M62 0v523h115v-523h-115zM-49 602q5 54 30 93.5t73 39.5q37 0 70 -25t49 -25q13 0 22 12q10 11 11 33h80q-5 -52 -30 -92.5t-73 -40.5q-37 0 -69 25q-11 9 -26 18q-11 7 -24 7t-22 -11q-10 -13 -11 -34h-80z" />
    <glyph glyph-name="Imacron" unicode="&#x12a;" horiz-adv-x="262" 
d="M70 0v710h122v-710h-122zM-44 791v88h350v-88h-350z" />
    <glyph glyph-name="imacron" unicode="&#x12b;" horiz-adv-x="239" 
d="M62 0v523h115v-523h-115zM-35 610v83h306v-83h-306z" />
    <glyph glyph-name="Iogonek" unicode="&#x12e;" horiz-adv-x="262" 
d="M116 -222q-45 0 -77.5 23t-32.5 67q0 61 87 132h-23v710h122v-710q-90 -69 -90 -107q0 -16 11.5 -24.5t27.5 -8.5q28 0 49 9l13 -74q-53 -17 -87 -17z" />
    <glyph glyph-name="iogonek" unicode="&#x12f;" horiz-adv-x="239" 
d="M103 -219q-44 0 -76.5 22.5t-32.5 65.5q0 59 88 131h-20v523h115v-523q-90 -69 -90 -107q0 -16 11.5 -24.5t27.5 -8.5q32 0 49 9l13 -71q-45 -17 -85 -17zM49 669q0 19 10 35q8 15 25 26q16 9 35 9t35 -9q16 -10 26 -26q9 -16 9 -35t-9 -35q-11 -17 -26 -25
q-16 -10 -35 -10t-35 10q-16 9 -25 25q-10 16 -10 35z" />
    <glyph glyph-name="Idotaccent" unicode="&#x130;" horiz-adv-x="262" 
d="M70 710h122v-710h-122v710zM59 851q0 20 10 36q8 14 26 26q17 9 36 9q21 0 37 -9q16 -10 26 -26q9 -17 9 -36t-9 -36q-12 -18 -26 -26q-16 -10 -37 -10q-20 0 -36 10q-17 9 -26 26q-10 16 -10 36z" />
    <glyph glyph-name="dotlessi" unicode="&#x131;" horiz-adv-x="239" 
d="M62 0v523h115v-523h-115z" />
    <glyph glyph-name="IJ" unicode="&#x132;" horiz-adv-x="691" 
d="M65 176l117 30q46 -114 157 -114q81 0 124.5 54.5t43.5 139.5v424h122v-425q0 -133 -75.5 -219t-209.5 -86q-100 0 -174.5 50.5t-104.5 145.5zM62 710h122v-410h-122v410z" />
    <glyph glyph-name="ij" unicode="&#x133;" horiz-adv-x="587" 
d="M62 523h115v-273q0 -58 26.5 -97t81.5 -39t90 37t35 93v279h115v-484q0 -112 -64 -182t-177 -70q-72 0 -129.5 32.5t-87.5 95.5l106 38q40 -65 111 -65q61 0 93.5 39.5t32.5 102.5v58q-53 -78 -154 -78q-93 0 -143.5 65t-50.5 162v286zM59 634q-10 16 -10 35t10 35
q8 15 25 26q16 9 35 9t35 -9q16 -10 26 -26q9 -16 9 -35t-9 -35q-11 -17 -26 -25q-16 -10 -35 -10t-35 10q-16 9 -25 25zM397 669q0 19 10 35q8 15 25 26q16 9 35 9t35 -9q16 -10 26 -26q9 -16 9 -35t-9 -35q-11 -17 -26 -25q-16 -10 -35 -10t-35 10q-16 9 -25 25
q-10 16 -10 35z" />
    <glyph glyph-name="uni0136" unicode="&#x136;" horiz-adv-x="676" 
d="M70 0v710h122v-317l291 317h146l-310 -333l346 -377h-162l-311 347v-347h-122zM286 -154q-14 16 -14 35q0 25 18 39.5t43 14.5q41 0 64 -39q9 -18 9 -41q0 -44 -28 -75.5t-72 -47.5l-22 51q24 11 38 24q14 14 17 30q-8 -5 -19 -5q-20 0 -34 14z" />
    <glyph glyph-name="uni0137" unicode="&#x137;" horiz-adv-x="561" 
d="M62 0v744h115v-437l214 216h140l-235 -232l259 -291h-151l-227 264v-264h-115zM269 -156q-20 0 -33.5 14.5t-13.5 34.5q0 23 17.5 37.5t41.5 14.5q33 0 52.5 -23t19.5 -57q0 -85 -97 -121l-22 51q45 22 54 54q-8 -5 -19 -5z" />
    <glyph glyph-name="kgreenlandic" unicode="&#x138;" horiz-adv-x="561" 
d="M62 523h115v-226l214 226h140l-235 -241l259 -282h-151l-227 254v-254h-115v523z" />
    <glyph glyph-name="Lacute" unicode="&#x139;" horiz-adv-x="536" 
d="M70 0v710h122v-601h301v-109h-423zM29 786l137 128h148l-163 -128h-122z" />
    <glyph glyph-name="lacute" unicode="&#x13a;" horiz-adv-x="239" 
d="M62 0v744h115v-744h-115zM32 803l116 143h130l-136 -143h-110z" />
    <glyph glyph-name="uni013B" unicode="&#x13b;" horiz-adv-x="536" 
d="M70 0v710h122v-601h301v-109h-423zM228 -154q-14 16 -14 35q0 25 18 39.5t43 14.5q41 0 64 -39q9 -18 9 -41q0 -44 -28 -75.5t-72 -47.5l-22 51q24 11 38 24q14 14 17 30q-8 -5 -19 -5q-20 0 -34 14z" />
    <glyph glyph-name="uni013C" unicode="&#x13c;" horiz-adv-x="239" 
d="M177 0h-115v744h115v-744zM53 -107q0 23 17.5 37.5t41.5 14.5q33 0 52.5 -23t19.5 -57q0 -85 -97 -121l-22 51q45 22 54 54q-8 -5 -19 -5q-20 0 -33.5 14.5t-13.5 34.5z" />
    <glyph glyph-name="Lcaron" unicode="&#x13d;" horiz-adv-x="536" 
d="M70 0v710h122v-601h301v-109h-423zM262 568l17 176h102l-45 -176h-74z" />
    <glyph glyph-name="lcaron" unicode="&#x13e;" horiz-adv-x="239" 
d="M62 744h115v-744h-115v744zM321 568h-74l17 176h102z" />
    <glyph glyph-name="Lslash" unicode="&#x141;" horiz-adv-x="546" 
d="M-2 167v115l82 60v368h122v-278l129 95v-115l-129 -95v-208h301v-109h-423v227z" />
    <glyph glyph-name="lslash" unicode="&#x142;" horiz-adv-x="273" 
d="M4 219v105l75 56v364h115v-278l75 56v-105l-75 -56v-361h-115v275z" />
    <glyph glyph-name="Nacute" unicode="&#x143;" horiz-adv-x="721" 
d="M70 0v710h108l354 -508v508h119v-710h-108l-354 510v-510h-119zM381 786h-122l137 128h148z" />
    <glyph glyph-name="nacute" unicode="&#x144;" horiz-adv-x="587" 
d="M177 0h-115v523h105l4 -72q23 42 66 64.5t94 22.5q93 0 143.5 -64.5t50.5 -162.5v-311h-115v298q0 59 -26 97.5t-82 38.5q-55 0 -90 -37t-35 -93v-304zM317 601h-110l116 143h130z" />
    <glyph glyph-name="uni0145" unicode="&#x145;" horiz-adv-x="721" 
d="M189 0h-119v710h108l354 -508v508h119v-710h-108l-354 510v-510zM294 -119q0 25 18 39.5t43 14.5q41 0 64 -39q9 -18 9 -41q0 -44 -28 -75.5t-72 -47.5l-22 51q24 11 38 24q14 14 17 30q-8 -5 -19 -5q-20 0 -34 14q-14 16 -14 35z" />
    <glyph glyph-name="uni0146" unicode="&#x146;" horiz-adv-x="587" 
d="M62 523h105l4 -72q23 42 66 64.5t94 22.5q93 0 143.5 -64.5t50.5 -162.5v-311h-115v298q0 59 -26 97.5t-82 38.5q-55 0 -90 -37t-35 -93v-304h-115v523zM275 -156q-20 0 -33.5 14.5t-13.5 34.5q0 23 17.5 37.5t41.5 14.5q33 0 52.5 -23t19.5 -57q0 -85 -97 -121l-22 51
q45 22 54 54q-8 -5 -19 -5z" />
    <glyph glyph-name="Ncaron" unicode="&#x147;" horiz-adv-x="721" 
d="M70 710h108l354 -508v508h119v-710h-108l-354 510v-510h-119v710zM160 914h122l80 -62l81 62h119l-145 -128h-112z" />
    <glyph glyph-name="ncaron" unicode="&#x148;" horiz-adv-x="587" 
d="M62 523h105l4 -72q23 42 66 64.5t94 22.5q93 0 143.5 -64.5t50.5 -162.5v-311h-115v298q0 59 -26 97.5t-82 38.5q-55 0 -90 -37t-35 -93v-304h-115v523zM247 601l-129 143h105l71 -71l73 71h102l-129 -143h-93z" />
    <glyph glyph-name="Eng" unicode="&#x14a;" horiz-adv-x="721" 
d="M189 0h-119v710h108l354 -508v508h119v-719q0 -88 -52 -146t-140 -58q-68 0 -121 38l34 89q36 -22 78 -22t62 28t20 71v25l-343 494v-510z" />
    <glyph glyph-name="eng" unicode="&#x14b;" horiz-adv-x="587" 
d="M62 523h105l4 -72q23 42 66 64.5t94 22.5q93 0 143.5 -64.5t50.5 -162.5v-350q0 -75 -43.5 -124.5t-119.5 -49.5q-47 0 -92 24l26 90q30 -13 49 -13q33 0 49 22.5t16 57.5v330q0 59 -26 97.5t-82 38.5q-55 0 -90 -37t-35 -93v-304h-115v523z" />
    <glyph glyph-name="Ohungarumlaut" unicode="&#x150;" horiz-adv-x="810" 
d="M46 354q0 158 100.5 267t259.5 109q157 0 257.5 -106.5t100.5 -267.5q0 -158 -100 -267t-259 -109q-156 0 -257.5 107t-101.5 267zM405 618q-106 0 -169.5 -76.5t-63.5 -186.5q0 -108 63.5 -185.5t169.5 -77.5t169.5 76.5t63.5 186.5q0 109 -62.5 186t-170.5 77zM534 786
h-115l139 128h139zM324 786h-115l139 128h139z" />
    <glyph glyph-name="ohungarumlaut" unicode="&#x151;" horiz-adv-x="614" 
d="M305 -15q-115 0 -190.5 79.5t-75.5 197.5t75.5 197t194.5 79q116 0 191 -78.5t75 -197.5q0 -118 -75.5 -197.5t-194.5 -79.5zM157 262q0 -69 41 -121t109 -52t109 51t41 122t-40.5 121.5t-109.5 50.5q-68 0 -109 -50.5t-41 -121.5zM429 601h-97l98 143h118zM156 601
l98 143h118l-119 -143h-97z" />
    <glyph glyph-name="OE" unicode="&#x152;" horiz-adv-x="1032" 
d="M46 354q0 162 104.5 259t271.5 97h542v-105h-300v-186h270v-105h-270v-209h310v-105h-552q-163 0 -269.5 95.5t-106.5 258.5zM428 601q-114 0 -185 -65.5t-71 -180.5q0 -113 70 -179.5t186 -66.5h116v492h-116z" />
    <glyph glyph-name="oe" unicode="&#x153;" horiz-adv-x="979" 
d="M298 -15q-111 0 -185 81t-74 195t73.5 195.5t187.5 81.5q131 0 202 -106q75 106 199 106q111 0 176.5 -77.5t65.5 -192.5v-34h-377q6 -65 42.5 -107t99.5 -42q80 0 123 73l101 -39q-28 -64 -88.5 -99t-134.5 -35q-64 0 -118 28t-90 80q-73 -108 -203 -108zM302 434
q-67 0 -106 -51t-39 -121q0 -69 39 -121t106 -52q66 0 105.5 52t39.5 121t-38.5 120.5t-106.5 51.5zM699 445q-52 0 -86 -37t-45 -92h255q-6 54 -39 91.5t-85 37.5z" />
    <glyph glyph-name="Racute" unicode="&#x154;" horiz-adv-x="618" 
d="M70 710h214q117 0 195.5 -55t78.5 -168q0 -65 -34 -116.5t-94 -80.5l165 -290h-135l-137 258q-7 -1 -24 -1q-9 -1 -28 -1q-38 0 -81 7v-263h-120v710zM282 604h-92v-235q33 -7 88 -7q67 0 111.5 29t44.5 92q0 62 -43 91.5t-109 29.5zM177 786l137 128h148l-163 -128h-122
z" />
    <glyph glyph-name="racute" unicode="&#x155;" horiz-adv-x="388" 
d="M62 523h105l5 -86q42 93 139 93q32 0 54 -9l-13 -112q-18 7 -47 7q-64 0 -96 -42.5t-32 -108.5v-265h-115v523zM128 601l116 143h130l-136 -143h-110z" />
    <glyph glyph-name="Rcaron" unicode="&#x158;" horiz-adv-x="618" 
d="M70 710h214q117 0 195.5 -55t78.5 -168q0 -65 -34 -116.5t-94 -80.5l165 -290h-135l-137 258q-7 -1 -24 -1q-9 -1 -28 -1q-38 0 -81 7v-263h-120v710zM190 369q33 -7 88 -7q67 0 111.5 29t44.5 92q0 62 -43 91.5t-109 29.5h-92v-235zM78 914h122l80 -62l81 62h119
l-145 -128h-112z" />
    <glyph glyph-name="rcaron" unicode="&#x159;" horiz-adv-x="388" 
d="M177 0h-115v523h105l5 -86q42 93 139 93q32 0 54 -9l-13 -112q-18 7 -47 7q-64 0 -96 -42.5t-32 -108.5v-265zM39 744h105l71 -71l73 71h102l-129 -143h-93z" />
    <glyph glyph-name="Sacute" unicode="&#x15a;" horiz-adv-x="564" 
d="M279 -15q-87 0 -157.5 46.5t-92.5 128.5l115 28q34 -96 136 -96q50 0 87.5 29t37.5 78q0 45 -31 67.5t-83 34.5l-37 8q-92 19 -149.5 69t-57.5 136q0 95 69 153t167 58q84 0 149.5 -46t85.5 -126l-114 -28q-34 93 -124 93q-44 0 -77 -26t-33 -69q0 -23 10.5 -41t29.5 -29
t36.5 -17.5t41.5 -11.5l37 -8q204 -46 204 -207q0 -101 -72.5 -162.5t-177.5 -61.5zM302 786h-122l137 128h148z" />
    <glyph glyph-name="sacute" unicode="&#x15b;" horiz-adv-x="479" 
d="M241 -15q-73 0 -132 36.5t-80 103.5l104 27q28 -72 109 -72q35 0 62 17t27 49q0 53 -85 67l-33 6q-169 30 -169 154q0 77 57 121t138 44q71 0 125.5 -36t73.5 -102l-103 -25q-27 69 -97 69q-31 0 -56 -16t-25 -46q0 -46 90 -62l33 -6q71 -12 118.5 -51t47.5 -106
q0 -80 -60.5 -126t-144.5 -46zM262 601h-110l116 143h130z" />
    <glyph glyph-name="Scedilla" unicode="&#x15e;" horiz-adv-x="564" 
d="M242 -13q-76 8 -134.5 54.5t-78.5 118.5l115 28q34 -96 136 -96q50 0 87.5 29t37.5 78q0 45 -31 67.5t-83 34.5l-37 8q-92 19 -149.5 69t-57.5 136q0 95 69 153t167 58q84 0 149.5 -46t85.5 -126l-114 -28q-34 93 -124 93q-44 0 -77 -26t-33 -69q0 -23 10.5 -41t29.5 -29
t36.5 -17.5t41.5 -11.5l37 -8q204 -46 204 -207q0 -90 -58 -149t-151 -73l-12 -38q31 -9 51.5 -31.5t20.5 -53.5q0 -58 -62 -86q-30 -12 -69 -12q-43 0 -84 15l15 68q26 -7 30 -8q18 -2 26 -2q22 0 35 9q12 9 12 24q0 35 -67 35z" />
    <glyph glyph-name="scedilla" unicode="&#x15f;" horiz-adv-x="479" 
d="M29 125l104 27q28 -72 109 -72q35 0 62 17t27 49q0 53 -85 67l-33 6q-169 30 -169 154q0 77 57 121t138 44q71 0 125.5 -36t73.5 -102l-103 -25q-27 69 -97 69q-31 0 -56 -16t-25 -46q0 -46 90 -62l33 -6q71 -12 118.5 -51t47.5 -106q0 -70 -49 -115.5t-122 -54.5
l-10 -33q31 -7 51.5 -29.5t20.5 -52.5q0 -48 -39 -72t-90 -24q-42 0 -79 15l14 65q26 -7 30 -8q18 -2 24 -2q47 0 47 33q0 35 -67 35l24 74q-62 9 -108 44t-64 93z" />
    <glyph glyph-name="Scaron" unicode="&#x160;" horiz-adv-x="564" 
d="M29 160l115 28q34 -96 136 -96q50 0 87.5 29t37.5 78q0 45 -31 67.5t-83 34.5l-37 8q-92 19 -149.5 69t-57.5 136q0 95 69 153t167 58q84 0 149.5 -46t85.5 -126l-114 -28q-34 93 -124 93q-44 0 -77 -26t-33 -69q0 -23 10.5 -41t29.5 -29t36.5 -17.5t41.5 -11.5l37 -8
q204 -46 204 -207q0 -101 -72.5 -162.5t-177.5 -61.5q-87 0 -157.5 46.5t-92.5 128.5zM226 786l-145 128h122l80 -62l81 62h119l-145 -128h-112z" />
    <glyph glyph-name="scaron" unicode="&#x161;" horiz-adv-x="479" 
d="M29 125l104 27q28 -72 109 -72q35 0 62 17t27 49q0 53 -85 67l-33 6q-169 30 -169 154q0 77 57 121t138 44q71 0 125.5 -36t73.5 -102l-103 -25q-27 69 -97 69q-31 0 -56 -16t-25 -46q0 -46 90 -62l33 -6q71 -12 118.5 -51t47.5 -106q0 -80 -60.5 -126t-144.5 -46
q-73 0 -132 36.5t-80 103.5zM63 744h105l71 -71l73 71h102l-129 -143h-93z" />
    <glyph glyph-name="Tcaron" unicode="&#x164;" horiz-adv-x="624" 
d="M44 601v109h536v-109h-207v-601h-122v601h-207zM111 914h122l80 -62l81 62h119l-145 -128h-112z" />
    <glyph glyph-name="tcaron" unicode="&#x165;" horiz-adv-x="426" 
d="M17 430v93h92v177h115v-177h152v-93h-152v-257q0 -38 16.5 -62.5t52.5 -24.5q18 0 39 6q21 4 39 15l26 -87q-19 -14 -53 -26q-32 -9 -66 -9q-81 0 -125 47t-44 129v269h-92zM378 591h-76l14 153h102z" />
    <glyph glyph-name="Tbar" unicode="&#x166;" horiz-adv-x="624" 
d="M44 601v109h536v-109h-207v-216h126v-99h-126v-286h-122v286h-126v99h126v216h-207z" />
    <glyph glyph-name="tbar" unicode="&#x167;" horiz-adv-x="426" 
d="M17 430v93h92v177h115v-177h152v-93h-152v-112h142v-85h-142v-60q0 -38 16.5 -62.5t52.5 -24.5q18 0 39 6q21 4 39 15l26 -87q-19 -14 -53 -26q-32 -9 -66 -9q-81 0 -125 47t-44 129v72h-82v85h82v112h-92z" />
    <glyph glyph-name="Utilde" unicode="&#x168;" horiz-adv-x="716" 
d="M62 282v428h122v-423q0 -84 45.5 -139.5t128.5 -55.5t128.5 54.5t45.5 140.5v423h122v-428q0 -135 -80.5 -218.5t-217.5 -83.5q-134 0 -214 82t-80 220zM169 789q6 55 35.5 93.5t81.5 38.5q38 0 79 -26q35 -26 57 -26q17 0 29 12q11 12 15 34h82q-6 -55 -35.5 -93.5
t-81.5 -38.5q-42 0 -78 26q-17 11 -30 18q-14 8 -28 8q-34 0 -44 -46h-82z" />
    <glyph glyph-name="utilde" unicode="&#x169;" horiz-adv-x="586" 
d="M62 231v292h115v-294q0 -60 29 -100t87 -40t87 40t29 100v294h115v-292q0 -109 -61.5 -177.5t-170.5 -68.5q-107 0 -168.5 68t-61.5 178zM125 602q5 54 30 93.5t73 39.5q37 0 70 -25t49 -25q13 0 22 12q10 11 11 33h80q-5 -52 -30 -92.5t-73 -40.5q-37 0 -69 25
q-11 9 -26 18q-11 7 -24 7t-22 -11q-10 -13 -11 -34h-80z" />
    <glyph glyph-name="Umacron" unicode="&#x16a;" horiz-adv-x="716" 
d="M62 710h122v-423q0 -84 45.5 -139.5t128.5 -55.5t128.5 54.5t45.5 140.5v423h122v-428q0 -135 -80.5 -218.5t-217.5 -83.5q-134 0 -214 82t-80 220v428zM533 791h-350v88h350v-88z" />
    <glyph glyph-name="umacron" unicode="&#x16b;" horiz-adv-x="586" 
d="M62 231v292h115v-294q0 -60 29 -100t87 -40t87 40t29 100v294h115v-292q0 -109 -61.5 -177.5t-170.5 -68.5q-107 0 -168.5 68t-61.5 178zM139 610v83h306v-83h-306z" />
    <glyph glyph-name="Uring" unicode="&#x16e;" horiz-adv-x="716" 
d="M62 710h122v-423q0 -84 45.5 -139.5t128.5 -55.5t128.5 54.5t45.5 140.5v423h122v-428q0 -135 -80.5 -218.5t-217.5 -83.5q-134 0 -214 82t-80 220v428zM263 804q-15 24 -15 53q0 45 32 75.5t78 30.5q64 0 96 -52q14 -26 14 -54q0 -45 -32 -75.5t-78 -30.5q-68 0 -95 53z
M313 857q0 -18 13.5 -32t31.5 -14q19 0 32 13.5t13 32.5q0 20 -13 33t-32 13t-32 -13.5t-13 -32.5z" />
    <glyph glyph-name="uring" unicode="&#x16f;" horiz-adv-x="586" 
d="M62 523h115v-294q0 -60 29 -100t87 -40t87 40t29 100v294h115v-292q0 -109 -61.5 -177.5t-170.5 -68.5q-107 0 -168.5 68t-61.5 178v292zM199 626q-15 22 -15 52q0 44 32 74t76 30q59 0 94 -51q14 -25 14 -53q0 -44 -31.5 -74t-76.5 -30q-63 0 -93 52zM292 725
q-19 0 -32.5 -13.5t-13.5 -33.5q0 -19 13.5 -33t32.5 -14t32.5 13.5t13.5 33.5t-13 33.5t-33 13.5z" />
    <glyph glyph-name="Uhungarumlaut" unicode="&#x170;" horiz-adv-x="716" 
d="M356 -20q-134 0 -214 82t-80 220v428h122v-423q0 -84 45.5 -139.5t128.5 -55.5t128.5 54.5t45.5 140.5v423h122v-428q0 -135 -80.5 -218.5t-217.5 -83.5zM487 786h-115l139 128h139zM162 786l139 128h139l-163 -128h-115z" />
    <glyph glyph-name="uhungarumlaut" unicode="&#x171;" horiz-adv-x="586" 
d="M62 231v292h115v-294q0 -60 29 -100t87 -40t87 40t29 100v294h115v-292q0 -109 -61.5 -177.5t-170.5 -68.5q-107 0 -168.5 68t-61.5 178zM414 601h-97l98 143h118zM238 601h-97l98 143h118z" />
    <glyph glyph-name="Uogonek" unicode="&#x172;" horiz-adv-x="716" 
d="M356 -20q-134 0 -214 82t-80 220v428h122v-423q0 -84 45.5 -139.5t128.5 -55.5t128.5 54.5t45.5 140.5v423h122v-428q0 -149 -105 -241q-43 -45 -61 -75q-25 -37 -25 -66q0 -40 40 -40q29 0 48 9l13 -74q-45 -17 -85 -17q-47 0 -79.5 24.5t-32.5 70.5q0 54 54 112
q-35 -5 -65 -5z" />
    <glyph glyph-name="uogonek" unicode="&#x173;" horiz-adv-x="586" 
d="M62 231v292h115v-294q0 -60 29 -100t87 -40t87 40t29 100v294h115v-292q0 -135 -90 -203q-78 -78 -78 -128q0 -40 45 -40q28 0 43 9l13 -71q-42 -17 -80 -17q-47 0 -80.5 23t-33.5 69q0 50 57 113q-9 -1 -28 -1q-107 0 -168.5 68t-61.5 178z" />
    <glyph glyph-name="Wcircumflex" unicode="&#x174;" horiz-adv-x="1029" 
d="M31 710h130l146 -548l150 548h118l151 -548l145 548h127l-210 -710h-124l-149 540l-149 -540h-125zM432 786h-119l145 128h112l145 -128h-122l-80 62z" />
    <glyph glyph-name="wcircumflex" unicode="&#x175;" horiz-adv-x="824" 
d="M188 0l-174 523h120l111 -382l117 382h103l116 -382l113 382h116l-175 -523h-108l-115 380l-116 -380h-108zM338 601h-102l129 143h93l129 -143h-105l-71 71z" />
    <glyph glyph-name="Ycircumflex" unicode="&#x176;" horiz-adv-x="648" 
d="M14 710h138l174 -318l173 318h135l-249 -430v-280h-122v280zM241 786h-119l145 128h112l145 -128h-122l-80 62z" />
    <glyph glyph-name="ycircumflex" unicode="&#x177;" horiz-adv-x="545" 
d="M14 523h126l141 -391l128 391h122l-222 -586q-56 -145 -177 -145q-49 0 -88 21l25 91q7 -3 25 -9q14 -3 27 -3q61 0 90 72l16 41zM97 601l129 143h93l129 -143h-105l-71 71l-73 -71h-102z" />
    <glyph glyph-name="Ydieresis" unicode="&#x178;" horiz-adv-x="648" 
d="M263 280l-249 430h138l174 -318l173 318h135l-249 -430v-280h-122v280zM207 779q-29 0 -49 19.5t-20 48.5t20 48.5t49 19.5q30 0 49.5 -19t19.5 -49q0 -29 -20 -48.5t-49 -19.5zM371 847q0 29 20 48.5t49 19.5t49 -19.5t20 -48.5t-20 -48.5t-49 -19.5t-49 19.5t-20 48.5z
" />
    <glyph glyph-name="Zacute" unicode="&#x179;" horiz-adv-x="630" 
d="M41 0v88l377 518h-362v104h513v-88l-377 -518h399v-104h-550zM210 786l137 128h148l-163 -128h-122z" />
    <glyph glyph-name="zacute" unicode="&#x17a;" horiz-adv-x="513" 
d="M41 0v76l272 354h-265v93h407v-76l-272 -354h289v-93h-431zM165 601l116 143h130l-136 -143h-110z" />
    <glyph glyph-name="Zdotaccent" unicode="&#x17b;" horiz-adv-x="630" 
d="M41 88l377 518h-362v104h513v-88l-377 -518h399v-104h-550v88zM250 815q-10 16 -10 36t10 36q8 14 26 26q16 9 36 9t37 -9q16 -10 26 -26q9 -17 9 -36t-9 -36q-12 -18 -26 -26q-16 -10 -37 -10q-20 0 -36 10q-17 9 -26 26z" />
    <glyph glyph-name="zdotaccent" unicode="&#x17c;" horiz-adv-x="513" 
d="M472 0h-431v76l272 354h-265v93h407v-76l-272 -354h289v-93zM181 669q0 19 10 35q18 35 60 35q19 0 36 -9q15 -11 25 -26q9 -16 9 -35t-9 -35q-22 -35 -61 -35q-21 0 -35 10q-16 9 -25 25q-10 16 -10 35z" />
    <glyph glyph-name="Zcaron" unicode="&#x17d;" horiz-adv-x="630" 
d="M41 0v88l377 518h-362v104h513v-88l-377 -518h399v-104h-550zM111 914h122l80 -62l81 62h119l-145 -128h-112z" />
    <glyph glyph-name="zcaron" unicode="&#x17e;" horiz-adv-x="513" 
d="M41 0v76l272 354h-265v93h407v-76l-272 -354h289v-93h-431zM76 744h105l71 -71l73 71h102l-129 -143h-93z" />
    <glyph glyph-name="uni0218" unicode="&#x218;" horiz-adv-x="564" 
d="M279 -15q-87 0 -157.5 46.5t-92.5 128.5l115 28q34 -96 136 -96q50 0 87.5 29t37.5 78q0 45 -31 67.5t-83 34.5l-37 8q-92 19 -149.5 69t-57.5 136q0 95 69 153t167 58q84 0 149.5 -46t85.5 -126l-114 -28q-34 93 -124 93q-44 0 -77 -26t-33 -69q0 -23 10.5 -41t29.5 -29
t36.5 -17.5t41.5 -11.5l37 -8q204 -46 204 -207q0 -101 -72.5 -162.5t-177.5 -61.5zM212 -119q0 25 18 39.5t43 14.5q41 0 64 -39q9 -18 9 -41q0 -44 -28 -75.5t-72 -47.5l-22 51q24 11 38 24q14 14 17 30q-8 -5 -19 -5q-20 0 -34 14q-14 16 -14 35z" />
    <glyph glyph-name="uni0219" unicode="&#x219;" horiz-adv-x="479" 
d="M241 -15q-73 0 -132 36.5t-80 103.5l104 27q28 -72 109 -72q35 0 62 17t27 49q0 53 -85 67l-33 6q-169 30 -169 154q0 77 57 121t138 44q71 0 125.5 -36t73.5 -102l-103 -25q-27 69 -97 69q-31 0 -56 -16t-25 -46q0 -46 90 -62l33 -6q71 -12 118.5 -51t47.5 -106
q0 -80 -60.5 -126t-144.5 -46zM175 -107q0 23 17.5 37.5t41.5 14.5q33 0 52.5 -23t19.5 -57q0 -85 -97 -121l-22 51q45 22 54 54q-8 -5 -19 -5q-20 0 -33.5 14.5t-13.5 34.5z" />
    <glyph glyph-name="uni021A" unicode="&#x21a;" horiz-adv-x="624" 
d="M251 601h-207v109h536v-109h-207v-601h-122v601zM259 -154q-14 16 -14 35q0 25 18 39.5t43 14.5q41 0 64 -39q9 -18 9 -41q0 -44 -28 -75.5t-72 -47.5l-22 51q24 11 38 24q14 14 17 30q-8 -5 -19 -5q-20 0 -34 14z" />
    <glyph glyph-name="uni021B" unicode="&#x21b;" horiz-adv-x="426" 
d="M17 430v93h92v177h115v-177h152v-93h-152v-257q0 -38 16.5 -62.5t52.5 -24.5q18 0 39 6q21 4 39 15l26 -87q-19 -14 -53 -26q-32 -9 -66 -9q-81 0 -125 47t-44 129v269h-92zM228 -156q-20 0 -33.5 14.5t-13.5 34.5q0 23 17.5 37.5t41.5 14.5q33 0 52.5 -23t19.5 -57
q0 -85 -97 -121l-22 51q45 22 54 54q-8 -5 -19 -5z" />
    <glyph glyph-name="uni0237" unicode="&#x237;" horiz-adv-x="244" 
d="M-31 -202q-26 9 -43 19l27 89q22 -13 48 -13q34 0 50 22.5t16 57.5v550h115v-557q0 -76 -44 -125t-120 -49q-26 0 -49 6z" />
    <glyph glyph-name="circumflex" unicode="&#x2c6;" horiz-adv-x="587" 
d="M118 601l129 143h93l129 -143h-105l-71 71l-73 -71h-102z" />
    <glyph glyph-name="caron" unicode="&#x2c7;" horiz-adv-x="587" 
d="M118 744h105l71 -71l73 71h102l-129 -143h-93z" />
    <glyph glyph-name="uni02C9" unicode="&#x2c9;" horiz-adv-x="587" 
d="M140 610v83h306v-83h-306z" />
    <glyph glyph-name="uni02CB" unicode="&#x2cb;" horiz-adv-x="587" 
d="M306 601l-136 143h130l116 -143h-110z" />
    <glyph glyph-name="breve" unicode="&#x2d8;" horiz-adv-x="587" 
d="M293 600q-63 0 -107.5 35.5t-55.5 97.5h92q16 -57 71 -57q56 0 71 57h92q-11 -62 -55 -97.5t-108 -35.5z" />
    <glyph glyph-name="dotaccent" unicode="&#x2d9;" horiz-adv-x="587" 
d="M223 669q0 19 10 35q18 35 60 35q19 0 36 -9q15 -11 25 -26q9 -16 9 -35t-9 -35q-22 -35 -61 -35q-21 0 -35 10q-16 9 -25 25q-10 16 -10 35z" />
    <glyph glyph-name="ring" unicode="&#x2da;" horiz-adv-x="587" 
d="M185 678q0 44 32 74t76 30q59 0 94 -51q14 -25 14 -53q0 -44 -31.5 -74t-76.5 -30q-63 0 -93 52q-15 22 -15 52zM247 678q0 -19 13.5 -33t32.5 -14t32.5 13.5t13.5 33.5t-13 33.5t-33 13.5q-19 0 -32.5 -13.5t-13.5 -33.5z" />
    <glyph glyph-name="ogonek" unicode="&#x2db;" horiz-adv-x="587" 
d="M196 -131q0 71 120 155l63 -24q-90 -69 -90 -107q0 -16 11.5 -24.5t27.5 -8.5q32 0 49 9l13 -71q-45 -17 -85 -17q-44 0 -76.5 22.5t-32.5 65.5z" />
    <glyph glyph-name="tilde" unicode="&#x2dc;" horiz-adv-x="587" 
d="M126 602q5 54 30 93.5t73 39.5q37 0 70 -25t49 -25q13 0 22 12q10 11 11 33h80q-5 -52 -30 -92.5t-73 -40.5q-37 0 -69 25q-11 9 -26 18q-11 7 -24 7t-22 -11q-10 -13 -11 -34h-80z" />
    <glyph glyph-name="hungarumlaut" unicode="&#x2dd;" horiz-adv-x="587" 
d="M273 601l98 143h118l-119 -143h-97zM194 601h-97l98 143h118z" />
    <glyph glyph-name="gravecomb" unicode="&#x300;" 
d="M-24 601l-136 143h130l116 -143h-110z" />
    <glyph glyph-name="acutecomb" unicode="&#x301;" 
d="M-86 601l116 143h130l-136 -143h-110z" />
    <glyph glyph-name="uni0302" unicode="&#x302;" 
d="M-175 601l129 143h93l129 -143h-105l-71 71l-73 -71h-102z" />
    <glyph glyph-name="tildecomb" unicode="&#x303;" 
d="M-167 602q5 54 30 93.5t73 39.5q32 0 70 -25q33 -25 49 -25q13 0 22 12q10 11 11 33h80q-5 -52 -30 -92.5t-73 -40.5q-32 0 -70 25q-16 12 -25 18q-11 7 -24 7t-22 -11q-10 -13 -11 -34h-80z" />
    <glyph glyph-name="uni0304" unicode="&#x304;" 
d="M-153 610v83h306v-83h-306z" />
    <glyph glyph-name="uni0306" unicode="&#x306;" 
d="M0 600q-63 0 -107 35.5t-56 97.5h92q15 -57 71 -57t71 57h92q-11 -62 -55 -97.5t-108 -35.5z" />
    <glyph glyph-name="uni0307" unicode="&#x307;" 
d="M-70 669q0 19 9 35q10 15 25 26q16 9 36 9t36 -9q15 -11 25 -26q9 -16 9 -35t-9 -35q-22 -35 -61 -35t-61 35q-9 16 -9 35z" />
    <glyph glyph-name="uni0308" unicode="&#x308;" 
d="M45 637q-9 13 -9 32q0 27 19 46t46 19q26 0 45.5 -19t19.5 -46q0 -26 -19.5 -45.5t-45.5 -19.5q-40 0 -56 33zM-101 604q-26 0 -45.5 19.5t-19.5 45.5t19 45.5t46 19.5t46 -19t19 -46q0 -19 -9 -32q-16 -33 -56 -33z" />
    <glyph glyph-name="uni030A" unicode="&#x30a;" 
d="M-108 678q0 28 14 53q35 51 94 51t94 -51q14 -25 14 -53q0 -44 -31.5 -74t-76.5 -30q-44 0 -76 30t-32 74zM-46 678q0 -20 13.5 -33.5t32.5 -13.5t32.5 13.5t13.5 33.5t-13 33.5t-33 13.5t-33 -13.5t-13 -33.5z" />
    <glyph glyph-name="uni030B" unicode="&#x30b;" 
d="M25 601l98 143h118l-119 -143h-97zM-54 601h-97l98 143h118z" />
    <glyph glyph-name="uni030C" unicode="&#x30c;" 
d="M-175 744h105l71 -71l73 71h102l-129 -143h-93z" />
    <glyph glyph-name="uni0312" unicode="&#x312;" 
d="M-65 661q0 85 97 121l22 -51q-45 -22 -54 -54q8 5 19 5q20 0 33.5 -14.5t13.5 -34.5q0 -23 -17.5 -37.5t-41.5 -14.5q-39 0 -63 39q-9 18 -9 41z" />
    <glyph glyph-name="uni0315" unicode="&#x315;" 
d="M70 568l17 176h102l-45 -176h-74z" />
    <glyph glyph-name="dotbelowcomb" unicode="&#x323;" 
d="M-70 -148q0 29 20.5 49.5t49.5 20.5t49.5 -20.5t20.5 -49.5q0 -20 -9 -36q-10 -15 -25 -25q-16 -9 -36 -9t-36 9q-15 10 -25 25q-9 16 -9 36z" />
    <glyph glyph-name="uni0326" unicode="&#x326;" 
d="M-65 -107q0 24 17 38t42 14q33 0 52.5 -23t19.5 -57q0 -85 -97 -121l-22 51q45 22 54 54q-8 -5 -19 -5q-21 0 -34 14t-13 35z" />
    <glyph glyph-name="uni0327" unicode="&#x327;" 
d="M-32 -224q-42 0 -79 15l14 65q2 -1 13 -4t16 -4q18 -2 25 -2q47 0 47 33q0 35 -67 35l31 97h74l-17 -57q31 -7 51.5 -29.5t20.5 -52.5q0 -48 -39 -72t-90 -24z" />
    <glyph glyph-name="uni0328" unicode="&#x328;" 
d="M-183 -131q0 70 120 155l63 -24q-45 -35 -69 -62q-21 -26 -21 -45q0 -33 39 -33q30 0 49 9l13 -71q-45 -17 -85 -17q-45 0 -77 22.5t-32 65.5z" />
    <glyph glyph-name="uni0E3F" unicode="&#xe3f;" horiz-adv-x="594" 
d="M72 0v690h186v125h67v-126q87 -7 143.5 -50t56.5 -126q0 -101 -86 -146q57 -20 86.5 -65t29.5 -107q0 -92 -65.5 -140t-164.5 -55v-140h-67v140h-186zM325 312v-215q52 4 83.5 30.5t31.5 76.5q0 51 -31 77.5t-84 30.5zM258 312h-76v-215h76v215zM258 593h-76v-190h76v190
zM325 591v-186q40 5 63 29t23 64q0 80 -86 93z" />
    <glyph glyph-name="uni1E24" unicode="&#x1e24;" horiz-adv-x="731" 
d="M70 710h122v-288h347v288h122v-710h-122v313h-347v-313h-122v710zM294 -154q0 20 10 36q8 15 26 25q16 10 36 10q21 0 37 -10q15 -8 26 -25q9 -16 9 -36t-9 -37q-10 -16 -26 -26q-17 -9 -37 -9t-36 9q-18 12 -26 26q-10 16 -10 37z" />
    <glyph glyph-name="uni1E25" unicode="&#x1e25;" horiz-adv-x="587" 
d="M62 0v744h115v-284q53 78 154 78q93 0 143.5 -64.5t50.5 -162.5v-311h-115v298q0 59 -26 97.5t-82 38.5q-55 0 -90 -37t-35 -93v-304h-115zM223 -148q0 21 10 35q9 16 25 25q14 10 35 10q29 0 49.5 -20.5t20.5 -49.5q0 -20 -9 -36q-10 -15 -25 -25q-17 -9 -36 -9
q-29 0 -49.5 20.5t-20.5 49.5z" />
    <glyph glyph-name="uni1E36" unicode="&#x1e36;" horiz-adv-x="536" 
d="M70 0v710h122v-601h301v-109h-423zM209 -154q0 20 10 36q8 15 26 25q16 10 36 10q21 0 37 -10q15 -8 26 -25q9 -16 9 -36t-9 -37q-10 -16 -26 -26q-16 -9 -37 -9q-19 0 -36 9q-18 12 -26 26q-10 16 -10 37z" />
    <glyph glyph-name="uni1E37" unicode="&#x1e37;" horiz-adv-x="239" 
d="M177 0h-115v744h115v-744zM118 -218q-29 0 -49.5 20.5t-20.5 49.5q0 21 10 35q9 16 25 25q14 10 35 10q29 0 49.5 -20.5t20.5 -49.5q0 -20 -9 -36q-10 -15 -25 -25q-16 -9 -36 -9z" />
    <glyph glyph-name="Wgrave" unicode="&#x1e80;" horiz-adv-x="1029" 
d="M241 0l-210 710h130l146 -548l150 548h118l151 -548l145 548h127l-210 -710h-124l-149 540l-149 -540h-125zM331 914h148l137 -128h-122z" />
    <glyph glyph-name="wgrave" unicode="&#x1e81;" horiz-adv-x="824" 
d="M14 523h120l111 -382l117 382h103l116 -382l113 382h116l-175 -523h-108l-115 380l-116 -380h-108zM251 744h130l116 -143h-110z" />
    <glyph glyph-name="Wacute" unicode="&#x1e82;" horiz-adv-x="1029" 
d="M31 710h130l146 -548l150 548h118l151 -548l145 548h127l-210 -710h-124l-149 540l-149 -540h-125zM534 786h-122l137 128h148z" />
    <glyph glyph-name="wacute" unicode="&#x1e83;" horiz-adv-x="824" 
d="M188 0l-174 523h120l111 -382l117 382h103l116 -382l113 382h116l-175 -523h-108l-115 380l-116 -380h-108zM435 601h-110l116 143h130z" />
    <glyph glyph-name="Wdieresis" unicode="&#x1e84;" horiz-adv-x="1029" 
d="M31 710h130l146 -548l150 548h118l151 -548l145 548h127l-210 -710h-124l-149 540l-149 -540h-125zM398 779q-29 0 -49 19.5t-20 48.5t20 48.5t49 19.5q30 0 49.5 -19t19.5 -49q0 -29 -20 -48.5t-49 -19.5zM562 847q0 29 20 48.5t49 19.5t49 -19.5t20 -48.5t-20 -48.5
t-49 -19.5t-49 19.5t-20 48.5z" />
    <glyph glyph-name="wdieresis" unicode="&#x1e85;" horiz-adv-x="824" 
d="M188 0l-174 523h120l111 -382l117 382h103l116 -382l113 382h116l-175 -523h-108l-115 380l-116 -380h-108zM456 637q-9 13 -9 32q0 27 19 46t46 19q26 0 45.5 -19t19.5 -46q0 -26 -19.5 -45.5t-45.5 -19.5q-40 0 -56 33zM310 604q-26 0 -45.5 19.5t-19.5 45.5t19.5 45.5
t45.5 19.5q35 0 57 -32q8 -16 8 -33q0 -27 -19 -46t-46 -19z" />
    <glyph glyph-name="Germandbls" unicode="&#x1e9e;" horiz-adv-x="646" 
d="M62 0v428q0 129 73 213t202 84q79 0 148 -35t112 -99l-131 -172q70 -21 110.5 -76t40.5 -129q0 -101 -71 -165t-174 -64q-66 0 -124 31l27 99q43 -23 93 -23q54 0 89 34t35 88q0 58 -41.5 91t-102.5 33l-11 73l121 158q-52 47 -118 47q-75 0 -115.5 -53t-40.5 -132v-431
h-122z" />
    <glyph glyph-name="Ygrave" unicode="&#x1ef2;" horiz-adv-x="648" 
d="M263 280l-249 430h138l174 -318l173 318h135l-249 -430v-280h-122v280zM303 786l-163 128h148l137 -128h-122z" />
    <glyph glyph-name="ygrave" unicode="&#x1ef3;" horiz-adv-x="545" 
d="M14 523h126l141 -391l128 391h122l-222 -586q-56 -145 -177 -145q-49 0 -88 21l25 91q7 -3 25 -9q14 -3 27 -3q61 0 90 72l16 41zM112 744h130l116 -143h-110z" />
    <glyph glyph-name="uni2000" unicode="&#x2000;" horiz-adv-x="500" 
 />
    <glyph glyph-name="uni2001" unicode="&#x2001;" horiz-adv-x="1000" 
 />
    <glyph glyph-name="uni2002" unicode="&#x2002;" horiz-adv-x="500" 
 />
    <glyph glyph-name="uni2003" unicode="&#x2003;" horiz-adv-x="1000" 
 />
    <glyph glyph-name="uni2004" unicode="&#x2004;" horiz-adv-x="333" 
 />
    <glyph glyph-name="uni2005" unicode="&#x2005;" horiz-adv-x="250" 
 />
    <glyph glyph-name="uni2006" unicode="&#x2006;" horiz-adv-x="166" 
 />
    <glyph glyph-name="uni2007" unicode="&#x2007;" horiz-adv-x="594" 
 />
    <glyph glyph-name="uni2008" unicode="&#x2008;" horiz-adv-x="254" 
 />
    <glyph glyph-name="uni2009" unicode="&#x2009;" horiz-adv-x="200" 
 />
    <glyph glyph-name="uni200A" unicode="&#x200a;" horiz-adv-x="63" 
 />
    <glyph glyph-name="uni200B" unicode="&#x200b;" 
 />
    <glyph glyph-name="endash" unicode="&#x2013;" horiz-adv-x="500" 
d="M0 231v88h500v-88h-500z" />
    <glyph glyph-name="emdash" unicode="&#x2014;" horiz-adv-x="1000" 
d="M0 231v88h1000v-88h-1000z" />
    <glyph glyph-name="quoteleft" unicode="&#x2018;" horiz-adv-x="240" 
d="M37 551q0 60 37.5 106t96.5 65l23 -62q-34 -12 -58.5 -38t-24.5 -59q0 -9 2 -21q11 8 25 8q25 0 41 -16.5t16 -41.5q0 -26 -20 -43t-46 -17q-42 0 -67 37.5t-25 81.5z" />
    <glyph glyph-name="quoteright" unicode="&#x2019;" horiz-adv-x="240" 
d="M102 596q-23 0 -40 17.5t-17 40.5q0 26 20 43t46 17q42 0 67 -37.5t25 -81.5q0 -61 -37 -106t-97 -65l-23 62q34 12 58.5 38t24.5 59q0 9 -2 21q-11 -8 -25 -8z" />
    <glyph glyph-name="quotesinglbase" unicode="&#x201a;" horiz-adv-x="236" 
d="M107 21q-23 0 -40 17.5t-17 40.5q0 26 20 43t46 17q42 0 67 -37.5t25 -81.5q0 -61 -37 -106t-97 -65l-23 62q35 12 59 37.5t24 59.5q0 9 -2 21q-11 -8 -25 -8z" />
    <glyph glyph-name="quotedblleft" unicode="&#x201c;" horiz-adv-x="442" 
d="M331 432q-42 0 -67 37.5t-25 81.5q0 60 37.5 106t96.5 65l23 -62q-34 -12 -58.5 -38t-24.5 -59q0 -9 2 -21q11 8 25 8q25 0 41 -16.5t16 -41.5q0 -26 -20 -43t-46 -17zM129 432q-42 0 -67 37.5t-25 81.5q0 60 37.5 106t96.5 65l23 -62q-34 -12 -58.5 -38t-24.5 -59
q0 -9 2 -21q11 8 25 8q25 0 41 -16.5t16 -41.5q0 -26 -20 -43t-46 -17z" />
    <glyph glyph-name="quotedblright" unicode="&#x201d;" horiz-adv-x="442" 
d="M45 654q0 26 20 43t46 17q42 0 67 -37.5t25 -81.5q0 -61 -37 -106t-97 -65l-23 62q34 12 58.5 38t24.5 59q0 9 -2 21q-11 -8 -25 -8q-23 0 -40 17.5t-17 40.5zM304 596q-23 0 -40 17.5t-17 40.5q0 26 20 43t46 17q42 0 67 -37.5t25 -81.5q0 -61 -37 -106t-97 -65l-23 62
q34 12 58.5 38t24.5 59q0 9 -2 21q-11 -8 -25 -8z" />
    <glyph glyph-name="quotedblbase" unicode="&#x201e;" horiz-adv-x="439" 
d="M50 79q0 26 20 43t46 17q42 0 67 -37.5t25 -81.5q0 -61 -37 -106t-97 -65l-23 62q35 12 59 37.5t24 59.5q0 9 -2 21q-11 -8 -25 -8q-23 0 -40 17.5t-17 40.5zM310 21q-23 0 -40 17.5t-17 40.5q0 26 20 43t46 17q42 0 67 -37.5t25 -81.5q0 -61 -37 -106t-97 -65l-23 62
q35 12 59 37.5t24 59.5q0 9 -2 21q-11 -8 -25 -8z" />
    <glyph glyph-name="dagger" unicode="&#x2020;" horiz-adv-x="471" 
d="M183 442h-153v92h153v176h105v-176h153v-92h-153v-524h-105v524z" />
    <glyph glyph-name="daggerdbl" unicode="&#x2021;" horiz-adv-x="518" 
d="M53 442v92h153v176h105v-176h153v-92h-153v-251h153v-92h-153v-181h-105v181h-153v92h153v251h-153z" />
    <glyph glyph-name="bullet" unicode="&#x2022;" horiz-adv-x="286" 
d="M43 276q0 41 29 70.5t71 29.5t71 -28.5t29 -71.5q0 -41 -29.5 -70.5t-70.5 -29.5t-70.5 30t-29.5 70z" />
    <glyph glyph-name="ellipsis" unicode="&#x2026;" horiz-adv-x="762" 
d="M635 -4q-31 0 -53.5 22.5t-22.5 53.5q0 32 22.5 54t53.5 22q32 0 54 -22t22 -54t-22 -54t-54 -22zM305 72q0 32 22.5 54t53.5 22q32 0 54 -22t22 -54t-22 -54t-54 -22q-31 0 -53.5 22.5t-22.5 53.5zM127 -4q-31 0 -53.5 22.5t-22.5 53.5q0 32 22.5 54t53.5 22
q32 0 54 -22t22 -54t-22 -54t-54 -22z" />
    <glyph glyph-name="perthousand" unicode="&#x2030;" horiz-adv-x="1104" 
d="M550 -9q-66 0 -111 44t-45 111q0 68 44.5 112.5t113.5 44.5q67 0 111.5 -44t44.5 -112q0 -67 -45 -111.5t-113 -44.5zM755 146q0 68 44.5 112.5t113.5 44.5q67 0 111.5 -44t44.5 -112q0 -67 -45 -111.5t-113 -44.5q-67 0 -111.5 43.5t-44.5 111.5zM191 387
q-67 0 -111.5 43.5t-44.5 111.5t44.5 112.5t113.5 44.5q67 0 111.5 -44t44.5 -112q0 -67 -45 -111.5t-113 -44.5zM204 0h-96l431 690h96zM192 621q-31 0 -49.5 -23t-18.5 -55t18.5 -55t49.5 -23t49.5 23t18.5 55t-18.5 55t-49.5 23zM912 225q-31 0 -49.5 -23t-18.5 -55
t18.5 -55t49.5 -23t49.5 23t18.5 55t-18.5 55t-49.5 23zM551 225q-31 0 -49.5 -23t-18.5 -55q0 -31 18.5 -54.5t49.5 -23.5t49.5 23t18.5 55t-18.5 55t-49.5 23z" />
    <glyph glyph-name="guilsinglleft" unicode="&#x2039;" horiz-adv-x="296" 
d="M156 95l-136 190l136 190h105l-132 -190l132 -190h-105z" />
    <glyph glyph-name="guilsinglright" unicode="&#x203a;" horiz-adv-x="296" 
d="M35 95l132 190l-132 190h105l136 -190l-136 -190h-105z" />
    <glyph glyph-name="fraction" unicode="&#x2044;" horiz-adv-x="93" 
d="M-217 0l436 690h91l-436 -690h-91z" />
    <glyph glyph-name="uni2080" unicode="&#x2080;" horiz-adv-x="357" 
d="M28 190q0 82 36 140.5t114 58.5q40 0 70.5 -17t47 -46t24.5 -63t8 -73q0 -81 -36.5 -140t-113.5 -59q-76 0 -113 58.5t-37 140.5zM113 190q0 -19 2.5 -37.5t8.5 -39.5t20 -33.5t34 -12.5t34 12.5t20 33.5t8.5 39.5t2.5 37.5q0 123 -65 123t-65 -123z" />
    <glyph glyph-name="uni2081" unicode="&#x2081;" horiz-adv-x="357" 
d="M166 0v292l-83 -44l-26 69l120 63h72v-380h-83z" />
    <glyph glyph-name="uni2082" unicode="&#x2082;" horiz-adv-x="357" 
d="M40 278q9 50 48.5 80.5t91.5 30.5q55 0 93 -33.5t38 -88.5q0 -81 -115 -170q-9 -7 -29 -23h151v-74h-274v61q22 17 45 36q15 13 41 35l27 24q69 59 69 109q0 22 -14 36t-36 14q-20 0 -36 -12q-16 -13 -22 -38z" />
    <glyph glyph-name="uni2083" unicode="&#x2083;" horiz-adv-x="357" 
d="M174 -9q-53 0 -92.5 27t-51.5 77l77 13q14 -44 64 -44q24 0 42.5 13t18.5 36q0 22 -18 34t-41 12h-41v72h35q25 0 41 13q16 12 16 31q0 18 -15 30q-16 11 -37 11q-46 0 -58 -40l-77 13q12 48 50.5 74t89.5 26q52 0 91 -27.5t39 -78.5q0 -57 -56 -84q65 -25 65 -92
q0 -54 -42.5 -85t-99.5 -31z" />
    <glyph glyph-name="uni2084" unicode="&#x2084;" horiz-adv-x="357" 
d="M22 76v67l164 237h94v-235h41v-69h-41v-76h-81v76h-177zM101 145h98v141z" />
    <glyph glyph-name="colonmonetary" unicode="&#x20a1;" horiz-adv-x="594" 
d="M167 35q-64 47 -92 130t-28 176q0 61 12 117.5t37 108.5t72 87t110 43l20 118h57l-19 -116q28 -1 54 -9l21 125h57l-25 -149q78 -48 106 -151l-103 -21q-9 28 -24 49l-75 -448q38 7 64 34.5t36 66.5l106 -21q-20 -80 -80 -130t-143 -54l-22 -131h-57l22 133q-30 3 -54 13
l-24 -146h-57zM319 599l-81 -485q22 -16 52 -21l83 493q-25 13 -54 13zM260 587q-99 -47 -99 -245q0 -105 30 -168z" />
    <glyph glyph-name="uni20A8" unicode="&#x20a8;" horiz-adv-x="1053" 
d="M184 0h-116v690h201q111 0 184.5 -53.5t73.5 -162.5q0 -62 -32 -113t-88 -78l157 -283h-132l-130 251q-34 -2 -45 -2q-32 0 -73 6v-255zM804 -15q-74 0 -132.5 36t-79.5 104l104 27q13 -34 42.5 -53t66.5 -19q35 0 62 17t27 49q0 53 -85 67l-33 6q-169 30 -169 154
q0 77 57 121t138 44q71 0 125.5 -35.5t73.5 -102.5l-103 -25q-27 69 -97 69q-31 0 -56 -16t-25 -46q0 -46 90 -62l33 -6q71 -12 118.5 -51t47.5 -106q0 -80 -60.5 -126t-144.5 -46zM269 587h-85v-228q29 -7 79 -7q64 0 105.5 28.5t41.5 89.5q0 59 -39.5 88t-101.5 29z" />
    <glyph glyph-name="uni20A9" unicode="&#x20a9;" horiz-adv-x="945" 
d="M34 265v69h112l-22 82h-90v69h72l-53 205h121l44 -205h159l47 205h101l48 -205h159l44 205h116l-53 -205h72v-69h-90l-22 -82h112v-69h-130l-69 -265h-119l-61 265h-118l-61 -265h-120l-69 265h-130zM233 416l18 -82h91l19 82h-128zM589 416l19 -82h91l18 82h-128z
M473 518l-43 -184h86zM684 265h-60l31 -134zM326 265h-60l29 -134z" />
    <glyph glyph-name="uni20AA" unicode="&#x20aa;" horiz-adv-x="919" 
d="M83 0v690h296q111 0 176.5 -65.5t65.5 -179.5v-235h-106v231q0 67 -36.5 101.5t-103.5 34.5h-186v-577h-106zM595 0h-296v478h106v-365h186q66 0 103 35t37 101v441h106v-445q0 -112 -64.5 -178.5t-177.5 -66.5z" />
    <glyph glyph-name="dong" unicode="&#x20ab;" horiz-adv-x="594" 
d="M245 -15q-99 0 -161.5 76.5t-62.5 178.5q0 104 63.5 181t166.5 77q95 0 150 -77v122h-131v80h131v67h116v-67h66v-80h-66v-543h-106l-4 75q-26 -43 -68.5 -66.5t-93.5 -23.5zM138 242q0 -63 35 -109t97 -46q61 0 97 45.5t36 109.5q0 63 -36 109t-97 46t-96.5 -45.5
t-35.5 -109.5zM26 -153v80h521v-80h-521z" />
    <glyph glyph-name="Euro" unicode="&#x20ac;" horiz-adv-x="594" 
d="M72 381h-76l18 75h67q21 110 85 179.5t171 69.5q85 0 147 -48t82 -131l-109 -22q-13 44 -44.5 69.5t-76.5 25.5q-107 0 -138 -143h215l-18 -75h-207q-1 -13 -1 -40q0 -25 1 -37h192l-17 -75h-165q13 -61 46.5 -99.5t90.5 -38.5q46 0 79 25t47 70l109 -22
q-20 -83 -85 -131t-152 -48q-105 0 -169.5 67.5t-83.5 176.5h-84l18 75h58q-1 11 -1 35q0 29 1 42z" />
    <glyph glyph-name="uni20AD" unicode="&#x20ad;" horiz-adv-x="594" 
d="M85 316h-73v92h73v282h116v-304l223 304h135l-222 -282h180v-92h-174l252 -316h-150l-244 334v-334h-116v316z" />
    <glyph glyph-name="uni20B1" unicode="&#x20b1;" horiz-adv-x="594" 
d="M15 354v57h76v68h-75v57h75v154h181q84 0 146 -38.5t89 -115.5h74v-57h-61q2 -26 2 -39q0 -20 -1 -29h60v-57h-72q-26 -79 -90.5 -121t-150.5 -42q-25 0 -63 5v-196h-114v354h-76zM406 479h-201v-68h203q2 18 2 30q0 22 -4 38zM387 354h-182v-58q33 -5 54 -5q86 0 128 63
zM269 590h-64v-54h178q-42 54 -114 54z" />
    <glyph glyph-name="uni20B9" unicode="&#x20b9;" horiz-adv-x="594" 
d="M75 602v88h469l-22 -88h-110q39 -37 52 -89h80l-22 -87h-54q-12 -78 -69 -124.5t-140 -55.5l284 -246h-170l-297 261h-1v81q55 -12 115 -12q139 0 160 96h-275v87h274q-27 89 -144 89h-130z" />
    <glyph glyph-name="uni20BA" unicode="&#x20ba;" horiz-adv-x="594" 
d="M50 168v82l72 34v82l-71 -34v82l71 34v242h116v-186l141 67v-82l-141 -67v-82l141 67v-82l-141 -67v-147h2q169 0 203 186l110 -10q-45 -287 -325 -287h-106v202z" />
    <glyph glyph-name="trademark" unicode="&#x2122;" horiz-adv-x="790" 
d="M368 359v351h84l98 -195l98 195h82v-351h-81v221l-73 -148h-54l-73 148v-221h-81zM126 636h-99v74h282v-74h-99v-277h-84v277z" />
    <glyph glyph-name="minus" unicode="&#x2212;" horiz-adv-x="594" 
d="M92 225v101h410v-101h-410z" />
    <glyph glyph-name="uniFEFF" unicode="&#xfeff;" 
 />
    <glyph glyph-name="uniFFFD" unicode="&#xfffd;" horiz-adv-x="808" 
d="M404 -34l-389 389l389 389l389 -389zM404 566q-54 0 -95.5 -28.5t-53.5 -79.5l67 -17q8 29 28.5 45.5t50.5 16.5q32 0 52.5 -19.5t20.5 -51.5q0 -69 -110 -96v-96h68v61q52 15 84.5 50.5t32.5 86.5q0 57 -43 92.5t-102 35.5zM398 197q-19 0 -32 -13t-13 -33
q0 -19 12.5 -32t32.5 -13t33 13t13 32q0 20 -13 33t-33 13z" />
    <glyph glyph-name="glyph1" 
 />
    <glyph glyph-name="zero.aalt" horiz-adv-x="594" 
d="M36 342q0 52 8 101.5t28 98t49.5 84t75.5 57.5t104 22q70 0 121.5 -31.5t80 -85t42 -113.5t13.5 -127q0 -53 -8 -102t-27 -97.5t-48 -84t-75.5 -57.5t-104.5 -22q-70 0 -122 31.5t-81 84.5t-42.5 113.5t-13.5 127.5zM155 345q0 -40 5.5 -78.5t19.5 -80.5t44 -67.5
t73 -25.5t73.5 25.5t44 67.5t19 80t5.5 79q0 42 -5 79.5t-19 79.5t-44 67.5t-74 25.5q-43 0 -73 -25.5t-44 -67.5t-19.5 -80t-5.5 -79z" />
    <glyph glyph-name="one.aalt" horiz-adv-x="594" 
d="M285 0v563l-150 -84l-41 97l209 114h98v-690h-116z" />
    <glyph glyph-name="two.aalt" horiz-adv-x="594" 
d="M57 515q20 86 84 138t153 52q96 0 160.5 -60.5t64.5 -157.5q0 -45 -16 -84q-21 -51 -73 -112t-93 -98t-102 -88h296v-105h-470v88q201 165 287 270q53 69 53 126q0 70 -52 102q-26 14 -58 14q-94 0 -124 -107z" />
    <glyph glyph-name="three.aalt" horiz-adv-x="594" 
d="M293 -15q-90 0 -158 48t-90 134l108 21q34 -100 138 -100q53 0 90.5 29t37.5 81q0 53 -38 80t-94 27h-74v102h69q51 0 86.5 26t35.5 75q0 44 -32 69t-78 25t-80.5 -26.5t-47.5 -70.5l-108 21q18 83 85.5 131t155.5 48q91 0 156.5 -49.5t65.5 -138.5q0 -53 -27 -93
t-75 -62q56 -20 87 -64t31 -103q0 -95 -73 -152.5t-171 -57.5z" />
    <glyph glyph-name="four.aalt" horiz-adv-x="594" 
d="M35 151v93l309 446h127v-440h82v-99h-82v-151h-114v151h-322zM150 250h207v297z" />
    <glyph glyph-name="five.aalt" horiz-adv-x="594" 
d="M299 -15q-86 0 -154.5 48t-88.5 131l110 19q17 -45 51.5 -70t81.5 -25q55 0 92 35.5t37 91.5q0 55 -36 89.5t-92 34.5q-67 0 -112 -45l-94 10v386h401v-107h-291v-179q47 38 118 38q96 0 160 -64t64 -161q0 -100 -72 -166t-175 -66z" />
    <glyph glyph-name="six.aalt" horiz-adv-x="594" 
d="M41 322q0 73 20 140t58 122t100 88t139 33q89 0 159 -46l-35 -96q-54 35 -122 35q-50 0 -88 -20t-61 -55.5t-36 -77t-18 -90.5q55 88 170 88q96 0 163 -63t67 -160q0 -101 -72 -168t-175 -67q-67 0 -119.5 28.5t-84.5 77t-48.5 107.5t-16.5 124zM310 345q-55 0 -92 -35.5
t-37 -90.5t36.5 -93.5t91.5 -38.5t92.5 38t37.5 93t-36.5 91t-92.5 36z" />
    <glyph glyph-name="seven.aalt" horiz-adv-x="594" 
d="M148 0l253 583h-345v107h474v-90l-252 -600h-130z" />
    <glyph glyph-name="eight.aalt" horiz-adv-x="594" 
d="M296 -15q-102 0 -177.5 53.5t-75.5 151.5q0 59 31.5 104.5t87.5 66.5q-45 22 -71 61.5t-26 89.5q0 89 70 141t163 52q92 0 161 -50.5t69 -140.5q0 -103 -95 -152q56 -19 87 -63.5t31 -104.5q0 -99 -75 -154t-180 -55zM297 308q-55 0 -95.5 -28.5t-40.5 -82.5
q0 -53 40 -82t96 -29t96 28.5t40 82.5t-40 82.5t-96 28.5zM297 604q-47 0 -82 -26.5t-35 -72.5t34.5 -72.5t82.5 -26.5t82.5 26.5t34.5 72.5t-34.5 72.5t-82.5 26.5z" />
    <glyph glyph-name="nine.aalt" horiz-adv-x="594" 
d="M41 470q0 101 71.5 168t174.5 67q69 0 122 -29.5t84 -79t46 -109.5t15 -127q0 -90 -22 -159q-33 -101 -109 -158.5t-182 -57.5q-96 0 -166 46l35 96q25 -16 58 -25q30 -10 70 -10q184 0 201 243q-55 -88 -170 -88q-96 0 -162 63.5t-66 159.5zM287 603q-54 0 -91 -38
t-37 -93q0 -54 36.5 -90.5t90.5 -36.5q55 0 91.5 35.5t36.5 90.5t-36 93.5t-91 38.5z" />
    <glyph glyph-name="hyphen.aalt" horiz-adv-x="372" 
d="M46 316v102h280v-102h-280z" />
    <glyph glyph-name="endash.aalt" horiz-adv-x="500" 
d="M0 323v88h500v-88h-500z" />
    <glyph glyph-name="emdash.aalt" horiz-adv-x="1000" 
d="M0 323v88h1000v-88h-1000z" />
    <glyph glyph-name="parenleft.aalt" horiz-adv-x="342" 
d="M213 -110q-167 204 -167 465t167 465h113q-174 -214 -174 -465t174 -465h-113z" />
    <glyph glyph-name="parenright.aalt" horiz-adv-x="342" 
d="M129 -110h-113q174 214 174 465t-174 465h113q167 -204 167 -465t-167 -465z" />
    <glyph glyph-name="slash.case" horiz-adv-x="454" 
d="M10 -80l328 870h106l-328 -870h-106z" />
    <glyph glyph-name="backslash.aalt" horiz-adv-x="454" 
d="M338 -80l-328 870h106l328 -870h-106z" />
    <glyph glyph-name="bracketleft.aalt" horiz-adv-x="358" 
d="M80 820h238v-89h-136v-752h136v-89h-238v930z" />
    <glyph glyph-name="bracketright.aalt" horiz-adv-x="358" 
d="M176 731h-136v89h238v-930h-238v89h136v752z" />
    <glyph glyph-name="braceleft.aalt" horiz-adv-x="367" 
d="M45 313h-15v84h15q35 0 53 20t18 54q0 24 -4 51q-11 66 -11 128q0 83 50.5 126.5t137.5 43.5h38v-89h-31q-90 0 -90 -94q0 -29 4 -54q11 -66 11 -108q0 -39 -17.5 -73t-50.5 -47q37 -14 59 -65q9 -25 9 -55q0 -43 -11 -107q-4 -25 -4 -55q0 -94 90 -94h31v-89h-38
q-85 0 -136.5 42.5t-51.5 127.5q0 52 11 129q4 25 4 50q0 34 -18 54t-53 20z" />
    <glyph glyph-name="braceright.aalt" horiz-adv-x="367" 
d="M78 -110h-38v89h31q90 0 90 94q0 43 -11 111q-4 25 -4 51q0 38 17.5 72.5t50.5 47.5q-41 17 -58 66q-10 23 -10 54q0 26 4 51q11 68 11 111q0 46 -23 71q-25 23 -67 23h-31v89h38q85 0 136.5 -42.5t51.5 -127.5q0 -36 -4 -65q-2 -15 -7 -63q-4 -27 -4 -51q0 -34 18.5 -54
t52.5 -20h15v-84h-15q-34 0 -52.5 -20t-18.5 -54q0 -25 4 -50q4 -44 7 -63q4 -31 4 -66q0 -83 -50.5 -126.5t-137.5 -43.5z" />
    <glyph glyph-name="bullet.aalt" horiz-adv-x="286" 
d="M43 365q0 41 29 70.5t71 29.5t71 -28.5t29 -71.5q0 -41 -29.5 -70.5t-70.5 -29.5t-70.5 29.5t-29.5 70.5z" />
    <glyph glyph-name="guilsinglleft.aalt" horiz-adv-x="296" 
d="M156 165l-136 190l136 190h105l-132 -190l132 -190h-105z" />
    <glyph glyph-name="guilsinglright.aalt" horiz-adv-x="296" 
d="M35 165l132 190l-132 190h105l136 -190l-136 -190h-105z" />
    <glyph glyph-name="guillemotleft.aalt" horiz-adv-x="507" 
d="M367 165l-136 190l136 190h105l-132 -190l132 -190h-105zM20 355l136 190h105l-132 -190l132 -190h-105z" />
    <glyph glyph-name="guillemotright.aalt" horiz-adv-x="507" 
d="M378 355l-132 190h105l136 -190l-136 -190h-105zM35 165l132 190l-132 190h105l136 -190l-136 -190h-105z" />
    <glyph glyph-name="at.aalt" horiz-adv-x="1011" 
d="M46 350q0 197 135.5 327.5t336.5 130.5q92 0 173.5 -29.5t142 -83t96 -133.5t35.5 -176q0 -47 -10.5 -91.5t-32.5 -83.5t-60.5 -62.5t-89.5 -23.5q-49 0 -85.5 23t-51.5 68q-48 -92 -152 -92q-92 0 -150 68.5t-58 162.5q0 93 57.5 163t148.5 70q96 0 143 -78l3 66h99
v-294q0 -31 15 -49q13 -19 38 -19t43 19t26.5 48.5t12 55t3.5 48.5q0 148 -96.5 239.5t-248.5 91.5q-157 0 -263 -103.5t-106 -262.5q0 -150 102.5 -254t253.5 -104q119 0 218 55l40 -82q-113 -65 -259 -65q-126 0 -230.5 57.5t-166.5 161t-62 231.5zM384 357
q0 -55 32 -94.5t86 -39.5q53 0 85.5 39.5t32.5 94.5q0 76 -57 117q-28 17 -61 17q-54 0 -86 -39t-32 -95z" />
    <glyph glyph-name="periodcentered.case" horiz-adv-x="254" 
d="M51 355q0 31 22.5 53.5t53.5 22.5q32 0 54 -22t22 -54t-22 -54t-54 -22q-31 0 -53.5 22.5t-22.5 53.5z" />
    <glyph glyph-name="exclamdown.aalt" horiz-adv-x="250" 
d="M187 0h-124l6 502h112zM51 640q0 31 21.5 52.5t52.5 21.5t52.5 -21.5t21.5 -52.5t-21.5 -52.5t-52.5 -21.5q-30 0 -52 21.5t-22 52.5z" />
    <glyph glyph-name="questiondown.aalt" horiz-adv-x="525" 
d="M269 -15q-93 0 -163 57t-70 149q0 80 51 135.5t133 81.5v94h112v-155q-175 -42 -175 -151q0 -47 32.5 -76.5t80.5 -29.5q45 0 79 25.5t48 68.5l108 -26q-21 -81 -85.5 -127t-150.5 -46zM276 566q-30 0 -52 21.5t-22 52.5t21.5 52.5t52.5 21.5t52.5 -21.5t21.5 -52.5
q0 -30 -21.5 -52t-52.5 -22z" />
    <glyph glyph-name="a.ss01" horiz-adv-x="632" 
d="M283 -15q-107 0 -175.5 81.5t-68.5 192.5q0 112 69.5 195.5t180.5 83.5q114 0 171 -92l5 77h105v-523h-105l-5 84q-28 -47 -74.5 -73t-102.5 -26zM157 261q0 -69 41 -120.5t109 -51.5t109 51t41 121q0 71 -40 122t-110 51q-68 0 -109 -51t-41 -122z" />
    <glyph glyph-name="ordfeminine.ss01" horiz-adv-x="453" 
d="M27 505q0 79 49 137t127 58q73 0 114 -59l3 50h91v-370h-91l-4 54q-44 -63 -117 -63q-75 0 -123.5 57.5t-48.5 135.5zM220 612q-43 0 -68.5 -31t-25.5 -75t25.5 -75t68.5 -31t68.5 31t25.5 75t-25.5 75t-68.5 31z" />
    <glyph glyph-name="glyph199" horiz-adv-x="104" 
d="M-13 377q0 27 19 46.5t46 19.5t46 -19.5t19 -46.5t-19 -46.5t-46 -19.5q-26 0 -45.5 20t-19.5 46z" />
    <glyph glyph-name="glyph200" 
d="M-212 392q0 20 9 36q11 15 26 25q17 9 36 9t35 -9q36 -23 36 -61q0 -21 -10 -35q-8 -15 -26 -25q-16 -10 -35 -10q-20 0 -36 10q-35 18 -35 60z" />
    <glyph glyph-name="glyph205" horiz-adv-x="587" 
d="M62 523h115v-273q0 -58 26.5 -97t81.5 -39t90 37t35 93v279h115v-484q0 -112 -64 -182t-177 -70q-72 0 -129.5 32.5t-87.5 95.5l106 38q40 -65 111 -65q61 0 93.5 39.5t32.5 102.5v58q-53 -78 -154 -78q-93 0 -143.5 65t-50.5 162v286z" />
    <glyph glyph-name="ae.ss01" horiz-adv-x="971" 
d="M39 259q0 112 67 195.5t177 83.5q114 0 166 -100l4 85h89l3 -63q60 78 160 78q106 0 168 -79.5t62 -190.5v-34h-377q6 -65 42.5 -107t99.5 -42q80 0 123 73l101 -39q-27 -62 -87.5 -98t-129.5 -36q-102 0 -162 77l-3 -62h-89l-4 91q-25 -48 -71 -77t-100 -29
q-106 0 -172.5 82t-66.5 192zM302 434q-67 0 -106 -51.5t-39 -121.5q0 -68 39 -120t106 -52q66 0 105.5 51.5t39.5 120.5q0 70 -38.5 121.5t-106.5 51.5zM560 316h255q-6 54 -39 91.5t-85 37.5t-86 -37t-45 -92z" />
    <glyph glyph-name="glyph234" 
d="M-30 -234q-44 0 -84 15l15 68q26 -7 30 -8q18 -2 26 -2q22 0 34 9q13 9 13 24q0 35 -67 35l33 101h77l-18 -59q31 -9 51.5 -31.5t20.5 -53.5q0 -58 -62 -86q-30 -12 -69 -12z" />
    <glyph glyph-name="glyph237" 
d="M-67 -119q0 25 18 39.5t43 14.5q41 0 64 -39q9 -18 9 -41q0 -44 -28 -75.5t-72 -47.5l-22 51q24 11 37 24q15 13 18 30q-8 -5 -19 -5q-20 0 -34 14q-14 16 -14 35z" />
    <glyph glyph-name="glyph240" 
d="M-134 -211q-52 26 -52 79q0 72 119 156l67 -24q-45 -35 -69 -62q-21 -26 -21 -45q0 -33 39 -33q30 0 49 9l13 -74q-49 -17 -87 -17q-31 0 -58 11z" />
    <glyph glyph-name="glyph241" 
d="M-183 -127q0 78 122 169l72 9q-101 -98 -101 -151q0 -40 45 -40q28 0 43 9l13 -71q-42 -17 -80 -17q-48 0 -81 23t-33 69z" />
    <glyph glyph-name="glyph242" 
d="M-74 -222q-48 0 -80 24.5t-32 70.5q0 81 123 175l74 9q-101 -101 -101 -157q0 -40 40 -40q30 0 48 9l13 -74q-45 -17 -85 -17z" />
    <glyph glyph-name="aogonek.ss01" horiz-adv-x="632" 
d="M283 -15q-107 0 -175.5 81.5t-68.5 192.5q0 112 69.5 195.5t180.5 83.5q114 0 171 -92l5 77h105v-523q-90 -69 -90 -107q0 -16 11.5 -24.5t27.5 -8.5q32 0 49 9l13 -71q-45 -17 -85 -17q-44 0 -76.5 22.5t-32.5 65.5q0 59 88 131h-10l-5 84q-28 -47 -74.5 -73t-102.5 -26
zM157 261q0 -69 41 -120.5t109 -51.5t109 51t41 121q0 71 -40 122t-110 51q-68 0 -109 -51t-41 -122z" />
    <glyph glyph-name="glyph270" 
d="M-102 786l137 128h148l-163 -128h-122z" />
    <glyph glyph-name="glyph273" 
d="M14 786l139 128h139l-163 -128h-115zM-81 786h-115l139 128h139z" />
    <glyph glyph-name="Iacute_J_acutecomb.locl" horiz-adv-x="691" 
d="M344 -20q-100 0 -174.5 50.5t-104.5 145.5l117 30q46 -114 157 -114q81 0 124.5 54.5t43.5 139.5v424h122v-425q0 -133 -75.5 -219t-209.5 -86zM62 300v410h122v-410h-122zM588 786h-122l137 128h148zM21 786l137 128h148l-163 -128h-122z" />
    <glyph glyph-name="iacute_j_acutecomb.locl" horiz-adv-x="587" 
d="M62 523h115v-273q0 -58 26.5 -97t81.5 -39t90 37t35 93v279h115v-484q0 -112 -64 -182t-177 -70q-72 0 -129.5 32.5t-87.5 95.5l106 38q40 -65 111 -65q61 0 93.5 39.5t32.5 102.5v58q-53 -78 -154 -78q-93 0 -143.5 65t-50.5 162v286zM491 601h-110l116 143h130z
M143 601h-110l116 143h130z" />
    <glyph glyph-name="aacute.ss01" horiz-adv-x="632" 
d="M39 259q0 112 69.5 195.5t180.5 83.5q114 0 171 -92l5 77h105v-523h-105l-5 84q-28 -47 -74.5 -73t-102.5 -26q-107 0 -175.5 81.5t-68.5 192.5zM157 261q0 -69 41 -120.5t109 -51.5t109 51t41 121q0 71 -40 122t-110 51q-68 0 -109 -51t-41 -122zM336 601h-110l116 143
h130z" />
    <glyph glyph-name="glyph309" 
d="M-20 786l-163 128h148l137 -128h-122z" />
    <glyph glyph-name="agrave.ss01" horiz-adv-x="632" 
d="M283 -15q-107 0 -175.5 81.5t-68.5 192.5q0 112 69.5 195.5t180.5 83.5q114 0 171 -92l5 77h105v-523h-105l-5 84q-28 -47 -74.5 -73t-102.5 -26zM307 434q-68 0 -109 -51t-41 -122q0 -69 41 -120.5t109 -51.5t109 51t41 121q0 71 -40 122t-110 51zM288 601l-136 143h130
l116 -143h-110z" />
    <glyph glyph-name="glyph328" 
d="M-201 786l145 128h112l145 -128h-122l-80 62l-81 -62h-119z" />
    <glyph glyph-name="glyph331" 
d="M-107 789h-82q4 40 20 71q35 61 97 61q37 0 79 -26q35 -26 57 -26q17 0 29 12q11 12 15 34h82q-6 -55 -35.5 -93.5t-81.5 -38.5q-37 0 -79 26q-35 26 -57 26q-34 0 -44 -46z" />
    <glyph glyph-name="acircumflex.ss01" horiz-adv-x="632" 
d="M39 259q0 112 69.5 195.5t180.5 83.5q114 0 171 -92l5 77h105v-523h-105l-5 84q-28 -47 -74.5 -73t-102.5 -26q-107 0 -175.5 81.5t-68.5 192.5zM307 434q-68 0 -109 -51t-41 -122q0 -69 41 -120.5t109 -51.5t109 51t41 121q0 71 -40 122t-110 51zM137 601l129 143h93
l129 -143h-105l-71 71l-73 -71h-102z" />
    <glyph glyph-name="atilde.ss01" horiz-adv-x="632" 
d="M283 -15q-107 0 -175.5 81.5t-68.5 192.5q0 112 69.5 195.5t180.5 83.5q114 0 171 -92l5 77h105v-523h-105l-5 84q-28 -47 -74.5 -73t-102.5 -26zM157 261q0 -69 41 -120.5t109 -51.5t109 51t41 121q0 71 -40 122t-110 51q-68 0 -109 -51t-41 -122zM225 602h-80
q5 54 30 93.5t73 39.5q37 0 70 -25t49 -25q13 0 22 12q10 11 11 33h80q-5 -52 -30 -92.5t-73 -40.5q-37 0 -69 25q-11 9 -26 18q-11 7 -24 7t-22 -11q-10 -13 -11 -34z" />
    <glyph glyph-name="glyph360" 
d="M-201 914h122l80 -62l81 62h119l-145 -128h-112z" />
    <glyph glyph-name="glyph363" 
d="M68 591l14 153h102l-40 -153h-76z" />
    <glyph glyph-name="glyph365" 
d="M-175 791v88h350v-88h-350z" />
    <glyph glyph-name="amacron.ss01" horiz-adv-x="632" 
d="M39 259q0 112 69.5 195.5t180.5 83.5q114 0 171 -92l5 77h105v-523h-105l-5 84q-28 -47 -74.5 -73t-102.5 -26q-107 0 -175.5 81.5t-68.5 192.5zM157 261q0 -69 41 -120.5t109 -51.5t109 51t41 121q0 71 -40 122t-110 51q-68 0 -109 -51t-41 -122zM159 610v83h306v-83
h-306z" />
    <glyph glyph-name="glyph396" 
d="M-116 779q-30 0 -49.5 19t-19.5 49q0 29 19.5 48.5t49.5 19.5t49.5 -19t19.5 -49q0 -29 -20 -48.5t-49 -19.5zM117 779q-29 0 -49 19.5t-20 48.5t20 48.5t49 19.5t49 -19.5t20 -48.5t-20 -48.5t-49 -19.5z" />
    <glyph glyph-name="glyph399" 
d="M0 781q-67 0 -115.5 36.5t-59.5 101.5h95q16 -61 80 -61q65 0 80 61h95q-11 -65 -59 -101.5t-116 -36.5z" />
    <glyph glyph-name="adieresis.ss01" horiz-adv-x="632" 
d="M39 259q0 112 69.5 195.5t180.5 83.5q114 0 171 -92l5 77h105v-523h-105l-5 84q-28 -47 -74.5 -73t-102.5 -26q-107 0 -175.5 81.5t-68.5 192.5zM157 261q0 -69 41 -120.5t109 -51.5t109 51t41 121q0 71 -40 122t-110 51q-68 0 -109 -51t-41 -122zM348 669q0 27 19 46
t46 19q26 0 45.5 -19t19.5 -46q0 -26 -19.5 -45.5t-45.5 -19.5q-40 0 -56 33q-9 13 -9 32zM146 669q0 26 19.5 45.5t45.5 19.5q35 0 57 -32q8 -16 8 -33q0 -27 -19 -46t-46 -19q-26 0 -45.5 19.5t-19.5 45.5z" />
    <glyph glyph-name="abreve.ss01" horiz-adv-x="632" 
d="M283 -15q-107 0 -175.5 81.5t-68.5 192.5q0 112 69.5 195.5t180.5 83.5q114 0 171 -92l5 77h105v-523h-105l-5 84q-28 -47 -74.5 -73t-102.5 -26zM157 261q0 -69 41 -120.5t109 -51.5t109 51t41 121q0 71 -40 122t-110 51q-68 0 -109 -51t-41 -122zM149 733h92
q16 -57 71 -57q56 0 71 57h92q-11 -62 -55 -97.5t-108 -35.5q-63 0 -107.5 35.5t-55.5 97.5z" />
    <glyph glyph-name="glyph422" 
d="M-72 851q0 19 9 36q10 16 26 26q17 9 37 9t37 -9q16 -10 26 -26q9 -17 9 -36t-9 -36q-12 -18 -26 -26q-16 -10 -37 -10t-37 10q-14 8 -26 26q-9 17 -9 36z" />
    <glyph glyph-name="glyph425" 
d="M-72 -154q0 20 9 36q11 17 26 25q16 10 37 10t37 -10q15 -8 26 -25q9 -16 9 -36t-9 -37q-10 -16 -26 -26q-16 -9 -37 -9q-20 0 -37 9q-16 10 -26 26q-9 16 -9 37z" />
    <glyph glyph-name="glyph440" 
d="M-110 857q0 28 14 54q32 52 96 52t96 -52q14 -26 14 -54q0 -45 -32 -75.5t-78 -30.5t-78 30t-32 76zM-45 857q0 -19 13 -32.5t32 -13.5t32 13.5t13 32.5q0 20 -13 33t-32 13t-32 -13t-13 -33z" />
    <glyph glyph-name="aring.ss01" horiz-adv-x="632" 
d="M283 -15q-107 0 -175.5 81.5t-68.5 192.5q0 112 69.5 195.5t180.5 83.5q114 0 171 -92l5 77h105v-523h-105l-5 84q-28 -47 -74.5 -73t-102.5 -26zM157 261q0 -69 41 -120.5t109 -51.5t109 51t41 121q0 71 -40 122t-110 51q-68 0 -109 -51t-41 -122zM204 678q0 44 32 74
t76 30q59 0 94 -51q14 -25 14 -53q0 -44 -31.5 -74t-76.5 -30q-63 0 -93 52q-15 22 -15 52zM312 725q-19 0 -32.5 -13.5t-13.5 -33.5q0 -19 13.5 -33t32.5 -14t32.5 13.5t13.5 33.5t-13 33.5t-33 13.5z" />
    <glyph glyph-name="colon_B_e_l_o_colon.dlig" horiz-adv-x="781" 
d="M207 -10q-64 0 -111 45t-47 109q0 22 7 43q5 20 21 56q8 18 27 59q5 10 16.5 34t18.5 38q6 13 19 39t19 39l35.5 71l35.5 71q4 8 12.5 24.5t12.5 23.5q43 78 117 78q73 0 117 -78q4 -7 12.5 -23.5t12.5 -24.5q21 -42 34 -66l38 -76q32 -66 38 -78q24 -52 34 -72
q34 -70 49 -115q6 -22 6 -43q0 -64 -46.5 -109t-111.5 -45q-90 0 -183 102q-93 -102 -183 -102zM101 177q-5 -18 -5 -33q0 -44 33 -76t77 -32q72 0 153 92q-94 115 -94 200q0 54 35.5 90t89.5 36t89.5 -35.5t35.5 -90.5q0 -85 -94 -200q81 -92 153 -92q44 0 77 32t33 76
q0 15 -5 33q-2 7 -19 47q-10 20 -25 56q-5 10 -16.5 34t-18.5 38q-7 15 -20 43t-18 37q-7 13 -19.5 39t-18.5 38q-18 33 -33 65q-6 11 -23 42q-17 29 -33.5 43.5t-44.5 14.5t-44.5 -14.5t-33.5 -43.5q-33 -60 -93 -184q-26 -54 -39 -80q-14 -28 -34 -72q-7 -14 -16 -34
t-10 -22q-17 -40 -19 -47zM390 407q-35 0 -56.5 -21.5t-21.5 -55.5q0 -69 78 -166q78 97 78 166q0 34 -21.5 55.5t-56.5 21.5z" />
    </font>
</defs>
</svg>
